<?xml version="1.0" encoding="UTF-8" standalone="no"?>
<svg width="510px" height="410px" viewBox="0 0 510 410" version="1.1" xmlns="http://www.w3.org/2000/svg" xmlns:xlink="http://www.w3.org/1999/xlink">
    <!-- Generator: Sketch 3.7.2 (28276) - http://www.bohemiancoding.com/sketch -->
    <title>contact</title>
    <desc>Created with Sketch.</desc>
    <defs>
        <path d="M170.328167,143.296191 C170.414701,136.413128 175.268699,130.554285 181.881659,129.095779 C181.771453,128.701811 181.701065,128.280083 181.678004,127.840045 L180.973491,114.397149 L172.095486,115.01796 C170.127845,115.15555 168.439064,113.927216 168.323488,112.274398 C168.207911,110.621579 169.709306,109.170166 171.676947,109.032575 L180.659428,108.404459 L180.576103,106.814536 C180.454391,104.492123 181.697028,102.53914 183.351612,102.452427 C185.006196,102.365714 186.446168,104.178107 186.567881,106.500521 L186.645724,107.985856 L189.490591,107.786924 C191.458232,107.649333 193.147013,108.877668 193.262589,110.530486 C193.378165,112.183304 191.87677,113.634717 189.90913,113.772308 L186.959787,113.978546 L187.669781,127.52603 C187.695919,128.02478 187.659134,128.506492 187.568859,128.956341 C193.981053,130.048833 199.069636,135.309343 199.75084,141.991103 C200.695989,142.524128 201.358607,143.512069 201.4258,144.6761 C201.5318,146.4941 200.1428,148.0541 198.3238,148.1591 L171.6038,149.7051 C169.7848,149.8101 168.2258,148.4211 168.1198,146.6031 C168.032852,145.096822 168.970364,143.768145 170.328167,143.296191 Z M72.9213774,136.692533 C66.1688686,137.339575 60.8497771,142.484831 59.7829017,148.963666 L54.3063284,149.210352 L53.1348191,148.218913 C52.9516361,148.063887 52.4479926,148.11441 51.7896858,148.32068 C52.4239732,147.240546 52.781222,145.607805 52.6865851,143.802025 L52.2248549,134.991688 L56.7228479,134.556945 C58.372017,134.397549 59.5797162,132.931416 59.4203195,131.282247 C59.2609229,129.633078 57.7947907,128.425379 56.1456216,128.584776 L51.910535,128.994108 L51.5438124,121.996624 L66.0894064,121.154991 C67.1789496,121.091948 68.0989439,120.454973 68.5726656,119.554782 L68.8159,123.7586 C69.0069,127.0666 71.8439,129.5936 75.1519,129.4016 L77.5619,129.2626 L77.4618471,127.533176 L92.7478863,126.69705 L92.4392075,141.88922 C92.410138,143.31993 93.7282103,144.529879 95.3832045,144.591718 C96.325006,144.626909 97.1729627,144.282716 97.7342498,143.715875 C98.5506133,144.157774 99.5915268,144.422582 100.71315,144.418971 L108.973022,144.392373 L108.973022,155.764648 L130.973022,155.764648 L130.973022,144.321532 L141.639137,144.287187 C142.097459,144.285711 142.537585,144.239518 142.950359,144.1549 C143.412174,144.33675 143.935123,144.418832 144.479215,144.372568 C146.129409,144.232253 147.3492,142.96446 147.203693,141.540872 L145.392162,123.817478 L160.011112,123.01784 L160.0961,124.4868 L162.5061,124.3478 C165.8141,124.1568 168.3411,121.3198 168.1491,118.0108 L167.4671,106.2248 C167.2761,102.9168 164.4391,100.3898 161.1311,100.5808 L158.7211,100.7208 L158.83705,102.724922 L140.45523,104.010304 L76.3116481,107.651882 L76.1869,105.4956 L73.7769,105.6356 C70.4689,105.8266 67.9419,108.6636 68.1339,111.9716 L68.394071,116.468133 C67.8196858,115.628583 66.8323619,115.101966 65.7428158,115.165009 L51.229792,116.004758 L51.1933962,115.310284 C51.0284631,112.163173 49.5534534,109.682231 47.8988698,109.768944 C46.2442862,109.855657 45.0366859,112.477189 45.201619,115.6243 L45.2397223,116.351353 L31.7998158,117.129009 C30.1457282,117.224718 28.8824121,118.643208 28.9781205,120.297295 C29.0738288,121.951383 30.4923187,123.214699 32.1464064,123.118991 L45.5537427,122.343219 L45.9325814,129.571893 L39.6846216,130.175776 C38.0354525,130.335172 36.8277533,131.801304 36.9871499,133.450473 C37.1465466,135.099643 38.6126788,136.307342 40.2618479,136.147945 L46.2469013,135.569474 L46.6948079,144.11604 C46.8343547,146.778754 47.9117258,148.964587 49.2422078,149.521865 C47.9751666,150.306071 47.2334271,151.091896 47.548851,151.358837 L51.0630616,154.332886 C51.2313748,154.475328 51.670234,154.444237 52.2510284,154.278245 C52.640866,154.877836 53.2184308,155.240713 53.8690712,155.211405 L60.0208447,154.934305 C61.6169661,161.386977 67.4269528,166.07724 74.2187209,166.124941 C74.7655548,167.501175 76.1469778,168.43647 77.7066,168.3468 C79.6546,168.2338 81.1426,166.5628 81.0296,164.6158 L79.5046,138.2618 C79.3916,136.3138 77.7216,134.8258 75.7736,134.9388 C74.5438535,135.010135 73.4974275,135.701971 72.9213774,136.692533 Z M98.7523738,126.368612 L98.5018801,138.697096 C99.0730609,138.51766 99.7146669,138.416482 100.396552,138.414287 L109.383325,138.385349 C110.256927,136.152149 112.430093,134.570648 114.973022,134.570648 L124.973022,134.570648 C127.490021,134.570648 129.64476,136.12006 130.53559,138.317237 L140.84299,138.284047 L139.397857,124.145358 L98.7523738,126.368612 Z M43.5097698,226.492 L42.7594,226.492 C39.5964,226.492 37.0094,223.905 37.0094,220.742 L37.0094,217.698 C37.0094,214.536 39.5964,211.948 42.7594,211.948 L45.2594,211.948 C45.5616323,211.948 45.8586056,211.971629 46.1485655,212.01713 L51.7823,181.1138 C52.1993,178.1528 54.7333,175.9508 57.7233,175.9508 L79.2213,175.9508 C80.6393,175.9508 81.9503,175.1998 82.6693,173.9788 L88.5713,159.4508 L153.3113,159.4508 L158.3663,174.8928 C159.0723,176.1628 160.4103,176.9508 161.8633,176.9508 L184.3053,176.9508 C187.2913,176.9508 189.8233,179.1458 190.2453,182.1018 L199.5093,242.9508 L40.5093,242.9508 L43.5097698,226.492 Z M145.0075,195.4752 C145.0075,209.2822 133.8145,220.4752 120.0075,220.4752 C106.2005,220.4752 95.0075,209.2822 95.0075,195.4752 C95.0075,181.6682 106.2005,170.4752 120.0075,170.4752 C133.8145,170.4752 145.0075,181.6682 145.0075,195.4752 Z M132.5075,195.4752 C132.5075,202.3792 126.9115,207.9752 120.0075,207.9752 C113.1035,207.9752 107.5075,202.3792 107.5075,195.4752 C107.5075,188.5712 113.1035,182.9752 120.0075,182.9752 C126.9115,182.9752 132.5075,188.5712 132.5075,195.4752 Z M135.4927,211.4604 C134.1417,212.8114 131.9527,212.8114 130.6017,211.4604 C129.2517,210.1094 129.2517,207.9204 130.6017,206.5694 C131.9527,205.2194 134.1417,205.2194 135.4927,206.5694 C136.8437,207.9204 136.8437,210.1094 135.4927,211.4604 Z M202.006,258 L38.014,258 L38.014,251.95 L202.006,251.95 L202.006,258 Z M109.3298,185.2975 C107.9788,186.6485 105.7898,186.6485 104.4388,185.2975 C103.0888,183.9465 103.0888,181.7575 104.4388,180.4065 C105.7898,179.0565 107.9788,179.0565 109.3298,180.4065 C110.6808,181.7575 110.6808,183.9465 109.3298,185.2975 Z M109.8298,210.9604 C108.4788,212.3114 106.2898,212.3114 104.9388,210.9604 C103.5888,209.6094 103.5888,207.4204 104.9388,206.0694 C106.2898,204.7194 108.4788,204.7194 109.8298,206.0694 C111.1808,207.4204 111.1808,209.6094 109.8298,210.9604 Z M135.9927,184.7975 C134.6417,186.1485 132.4527,186.1485 131.1017,184.7975 C129.7517,183.4465 129.7517,181.2575 131.1017,179.9065 C132.4527,178.5565 134.6417,178.5565 135.9927,179.9065 C137.3437,181.2575 137.3437,183.4465 135.9927,184.7975 Z M141.9242,195.9335 C141.9242,197.8435 140.3762,199.3915 138.4662,199.3915 C136.5562,199.3915 135.0072,197.8435 135.0072,195.9335 C135.0072,194.0235 136.5562,192.4755 138.4662,192.4755 C140.3762,192.4755 141.9242,194.0235 141.9242,195.9335 Z M104.9242,195.9335 C104.9242,197.8435 103.3762,199.3915 101.4662,199.3915 C99.5562,199.3915 98.0072,197.8435 98.0072,195.9335 C98.0072,194.0235 99.5562,192.4755 101.4662,192.4755 C103.3762,192.4755 104.9242,194.0235 104.9242,195.9335 Z M123.9242,213.9335 C123.9242,215.8435 122.3762,217.3915 120.4662,217.3915 C118.5562,217.3915 117.0072,215.8435 117.0072,213.9335 C117.0072,212.0235 118.5562,210.4755 120.4662,210.4755 C122.3762,210.4755 123.9242,212.0235 123.9242,213.9335 Z M123.9242,176.9335 C123.9242,178.8435 122.3762,180.3915 120.4662,180.3915 C118.5562,180.3915 117.0072,178.8435 117.0072,176.9335 C117.0072,175.0235 118.5562,173.4755 120.4662,173.4755 C122.3762,173.4755 123.9242,175.0235 123.9242,176.9335 Z" id="path-1"></path>
        <filter x="-50%" y="-50%" width="200%" height="200%" filterUnits="objectBoundingBox" id="filter-2">
            <feOffset dx="0" dy="20" in="SourceAlpha" result="shadowOffsetOuter1"></feOffset>
            <feGaussianBlur stdDeviation="12" in="shadowOffsetOuter1" result="shadowBlurOuter1"></feGaussianBlur>
            <feColorMatrix values="0 0 0 0 0   0 0 0 0 0   0 0 0 0 0  0 0 0 0.15 0" type="matrix" in="shadowBlurOuter1" result="shadowMatrixOuter1"></feColorMatrix>
            <feOffset dx="0" dy="0" in="SourceAlpha" result="shadowOffsetOuter2"></feOffset>
            <feGaussianBlur stdDeviation="2" in="shadowOffsetOuter2" result="shadowBlurOuter2"></feGaussianBlur>
            <feColorMatrix values="0 0 0 0 0   0 0 0 0 0   0 0 0 0 0  0 0 0 0.122877038 0" type="matrix" in="shadowBlurOuter2" result="shadowMatrixOuter2"></feColorMatrix>
            <feMerge>
                <feMergeNode in="shadowMatrixOuter1"></feMergeNode>
                <feMergeNode in="shadowMatrixOuter2"></feMergeNode>
            </feMerge>
        </filter>
        <path d="M205.0075,8.437 L217.3405,0.142" id="path-3"></path>
        <filter x="-50%" y="-50%" width="200%" height="200%" filterUnits="objectBoundingBox" id="filter-4">
            <feMorphology radius="3" operator="dilate" in="SourceAlpha" result="shadowSpreadOuter1"></feMorphology>
            <feOffset dx="0" dy="20" in="shadowSpreadOuter1" result="shadowOffsetOuter1"></feOffset>
            <feMorphology radius="3" operator="erode" in="SourceAlpha" result="shadowInner"></feMorphology>
            <feOffset dx="0" dy="20" in="shadowInner" result="shadowInner"></feOffset>
            <feComposite in="shadowOffsetOuter1" in2="shadowInner" operator="out" result="shadowOffsetOuter1"></feComposite>
            <feGaussianBlur stdDeviation="12" in="shadowOffsetOuter1" result="shadowBlurOuter1"></feGaussianBlur>
            <feColorMatrix values="0 0 0 0 0   0 0 0 0 0   0 0 0 0 0  0 0 0 0.15 0" type="matrix" in="shadowBlurOuter1" result="shadowMatrixOuter1"></feColorMatrix>
            <feMorphology radius="3" operator="dilate" in="SourceAlpha" result="shadowSpreadOuter2"></feMorphology>
            <feOffset dx="0" dy="0" in="shadowSpreadOuter2" result="shadowOffsetOuter2"></feOffset>
            <feMorphology radius="3" operator="erode" in="SourceAlpha" result="shadowInner"></feMorphology>
            <feOffset dx="0" dy="0" in="shadowInner" result="shadowInner"></feOffset>
            <feComposite in="shadowOffsetOuter2" in2="shadowInner" operator="out" result="shadowOffsetOuter2"></feComposite>
            <feGaussianBlur stdDeviation="2" in="shadowOffsetOuter2" result="shadowBlurOuter2"></feGaussianBlur>
            <feColorMatrix values="0 0 0 0 0   0 0 0 0 0   0 0 0 0 0  0 0 0 0.122877038 0" type="matrix" in="shadowBlurOuter2" result="shadowMatrixOuter2"></feColorMatrix>
            <feMerge>
                <feMergeNode in="shadowMatrixOuter1"></feMergeNode>
                <feMergeNode in="shadowMatrixOuter2"></feMergeNode>
            </feMerge>
        </filter>
        <path d="M211.0038,22.2748 L226.0038,22.2748" id="path-5"></path>
        <filter x="-50%" y="-50%" width="200%" height="200%" filterUnits="objectBoundingBox" id="filter-6">
            <feMorphology radius="3" operator="dilate" in="SourceAlpha" result="shadowSpreadOuter1"></feMorphology>
            <feOffset dx="0" dy="20" in="shadowSpreadOuter1" result="shadowOffsetOuter1"></feOffset>
            <feMorphology radius="3" operator="erode" in="SourceAlpha" result="shadowInner"></feMorphology>
            <feOffset dx="0" dy="20" in="shadowInner" result="shadowInner"></feOffset>
            <feComposite in="shadowOffsetOuter1" in2="shadowInner" operator="out" result="shadowOffsetOuter1"></feComposite>
            <feGaussianBlur stdDeviation="12" in="shadowOffsetOuter1" result="shadowBlurOuter1"></feGaussianBlur>
            <feColorMatrix values="0 0 0 0 0   0 0 0 0 0   0 0 0 0 0  0 0 0 0.15 0" type="matrix" in="shadowBlurOuter1" result="shadowMatrixOuter1"></feColorMatrix>
            <feMorphology radius="3" operator="dilate" in="SourceAlpha" result="shadowSpreadOuter2"></feMorphology>
            <feOffset dx="0" dy="0" in="shadowSpreadOuter2" result="shadowOffsetOuter2"></feOffset>
            <feMorphology radius="3" operator="erode" in="SourceAlpha" result="shadowInner"></feMorphology>
            <feOffset dx="0" dy="0" in="shadowInner" result="shadowInner"></feOffset>
            <feComposite in="shadowOffsetOuter2" in2="shadowInner" operator="out" result="shadowOffsetOuter2"></feComposite>
            <feGaussianBlur stdDeviation="2" in="shadowOffsetOuter2" result="shadowBlurOuter2"></feGaussianBlur>
            <feColorMatrix values="0 0 0 0 0   0 0 0 0 0   0 0 0 0 0  0 0 0 0.122877038 0" type="matrix" in="shadowBlurOuter2" result="shadowMatrixOuter2"></feColorMatrix>
            <feMerge>
                <feMergeNode in="shadowMatrixOuter1"></feMergeNode>
                <feMergeNode in="shadowMatrixOuter2"></feMergeNode>
            </feMerge>
        </filter>
        <path d="M207.3409,36.7355 L222.3409,43.7255" id="path-7"></path>
        <filter x="-50%" y="-50%" width="200%" height="200%" filterUnits="objectBoundingBox" id="filter-8">
            <feMorphology radius="3" operator="dilate" in="SourceAlpha" result="shadowSpreadOuter1"></feMorphology>
            <feOffset dx="0" dy="20" in="shadowSpreadOuter1" result="shadowOffsetOuter1"></feOffset>
            <feMorphology radius="3" operator="erode" in="SourceAlpha" result="shadowInner"></feMorphology>
            <feOffset dx="0" dy="20" in="shadowInner" result="shadowInner"></feOffset>
            <feComposite in="shadowOffsetOuter1" in2="shadowInner" operator="out" result="shadowOffsetOuter1"></feComposite>
            <feGaussianBlur stdDeviation="12" in="shadowOffsetOuter1" result="shadowBlurOuter1"></feGaussianBlur>
            <feColorMatrix values="0 0 0 0 0   0 0 0 0 0   0 0 0 0 0  0 0 0 0.15 0" type="matrix" in="shadowBlurOuter1" result="shadowMatrixOuter1"></feColorMatrix>
            <feMorphology radius="3" operator="dilate" in="SourceAlpha" result="shadowSpreadOuter2"></feMorphology>
            <feOffset dx="0" dy="0" in="shadowSpreadOuter2" result="shadowOffsetOuter2"></feOffset>
            <feMorphology radius="3" operator="erode" in="SourceAlpha" result="shadowInner"></feMorphology>
            <feOffset dx="0" dy="0" in="shadowInner" result="shadowInner"></feOffset>
            <feComposite in="shadowOffsetOuter2" in2="shadowInner" operator="out" result="shadowOffsetOuter2"></feComposite>
            <feGaussianBlur stdDeviation="2" in="shadowOffsetOuter2" result="shadowBlurOuter2"></feGaussianBlur>
            <feColorMatrix values="0 0 0 0 0   0 0 0 0 0   0 0 0 0 0  0 0 0 0.122877038 0" type="matrix" in="shadowBlurOuter2" result="shadowMatrixOuter2"></feColorMatrix>
            <feMerge>
                <feMergeNode in="shadowMatrixOuter1"></feMergeNode>
                <feMergeNode in="shadowMatrixOuter2"></feMergeNode>
            </feMerge>
        </filter>
        <path d="M39.9971,0.1338 C18.0321,-0.0072 10.4441,13.0828 9.2971,23.9548 C8.1341,34.9778 22.1581,54.2118 19.0071,69.0608 C16.2561,82.0318 -9.3589,95.8078 3.6741,108.0628 C17.0071,120.5988 28.0071,98.3918 41.1381,99.8578" id="path-9"></path>
        <filter x="-50%" y="-50%" width="200%" height="200%" filterUnits="objectBoundingBox" id="filter-10">
            <feMorphology radius="3" operator="dilate" in="SourceAlpha" result="shadowSpreadOuter1"></feMorphology>
            <feOffset dx="0" dy="0" in="shadowSpreadOuter1" result="shadowOffsetOuter1"></feOffset>
            <feMorphology radius="3" operator="erode" in="SourceAlpha" result="shadowInner"></feMorphology>
            <feOffset dx="0" dy="0" in="shadowInner" result="shadowInner"></feOffset>
            <feComposite in="shadowOffsetOuter1" in2="shadowInner" operator="out" result="shadowOffsetOuter1"></feComposite>
            <feGaussianBlur stdDeviation="12" in="shadowOffsetOuter1" result="shadowBlurOuter1"></feGaussianBlur>
            <feColorMatrix values="0 0 0 0 0   0 0 0 0 0   0 0 0 0 0  0 0 0 0.195340806 0" type="matrix" in="shadowBlurOuter1"></feColorMatrix>
        </filter>
        <path d="M209.059775,166.050416 C208.348327,166.720296 207.536718,167.136165 206.666417,167.220126 L193.034258,168.538337 L193.037369,168.647188 L194.060066,168.647188 C198.074646,168.647188 201.478837,171.984679 202.046202,176.479268 L214.501348,269 L121,269 L121,360.008492 C121,361.101103 121.89132,362 122.990819,362 L458.009181,362 C459.101271,362 460,361.108372 460,360.008492 L460,1.99150764 C460,0.898896514 459.10868,0 458.009181,0 L122.990819,0 C121.898729,0 121,0.891628339 121,1.99150764 L121,110.402252 L153.796096,111.584114 C154.107291,109.437769 155.518979,107.616313 157.474827,106.760059 L156.696688,94.9090193 L160.691675,94.7045292 C166.175249,94.4255463 170.878061,98.1165924 171.194676,102.948401 L171.357208,105.42335 L177.416918,104.998075 L177.253065,102.663347 C177.011409,99.2200101 179.606884,96.2327331 183.050221,95.991077 C186.493558,95.7494209 189.480835,98.344896 189.722491,101.788233 L189.886344,104.12296 L193.936512,103.838716 C197.379849,103.59706 200.367126,106.192535 200.608782,109.635872 C200.850438,113.079209 198.254963,116.066486 194.811626,116.308142 L190.761458,116.592386 L191.055507,120.782269 C192.525229,121.077939 193.958504,121.498948 195.345495,122.035519 L215.174622,109.234589 C219.348339,106.540197 225.007475,107.603482 227.814658,111.609502 C230.62184,115.615523 229.514045,121.047282 225.340328,123.741674 L211.390679,132.747037 L232.055909,132.025391 C237.145776,131.847649 241.410228,135.663929 241.580829,140.54929 C241.751429,145.434652 237.763576,149.539108 232.673709,149.71685 L216.897376,150.267772 L231.749199,156.910645 C236.3084,158.949868 238.282044,164.150448 236.157456,168.526465 C234.032869,172.902481 228.614588,174.796826 224.055388,172.757602 L209.059775,166.050416 Z" id="path-11"></path>
        <filter x="-50%" y="-50%" width="200%" height="200%" filterUnits="objectBoundingBox" id="filter-13">
            <feOffset dx="0" dy="0" in="SourceAlpha" result="shadowOffsetOuter1"></feOffset>
            <feGaussianBlur stdDeviation="2" in="shadowOffsetOuter1" result="shadowBlurOuter1"></feGaussianBlur>
            <feColorMatrix values="0 0 0 0 0   0 0 0 0 0   0 0 0 0 0  0 0 0 0.12 0" type="matrix" in="shadowBlurOuter1" result="shadowMatrixOuter1"></feColorMatrix>
            <feOffset dx="0" dy="20" in="SourceAlpha" result="shadowOffsetOuter2"></feOffset>
            <feGaussianBlur stdDeviation="12" in="shadowOffsetOuter2" result="shadowBlurOuter2"></feGaussianBlur>
            <feColorMatrix values="0 0 0 0 0   0 0 0 0 0   0 0 0 0 0  0 0 0 0.15 0" type="matrix" in="shadowBlurOuter2" result="shadowMatrixOuter2"></feColorMatrix>
            <feMerge>
                <feMergeNode in="shadowMatrixOuter1"></feMergeNode>
                <feMergeNode in="shadowMatrixOuter2"></feMergeNode>
            </feMerge>
        </filter>
        <path d="M97.4927,83.4604 C96.1417,84.8114 93.9527,84.8114 92.6017,83.4604 C91.2517,82.1094 91.2517,79.9204 92.6017,78.5694 C93.9527,77.2194 96.1417,77.2194 97.4927,78.5694 C98.8437,79.9204 98.8437,82.1094 97.4927,83.4604" id="path-14"></path>
        <filter x="-50%" y="-50%" width="200%" height="200%" filterUnits="objectBoundingBox" id="filter-15">
            <feOffset dx="0" dy="0" in="SourceAlpha" result="shadowOffsetOuter1"></feOffset>
            <feGaussianBlur stdDeviation="3.5" in="shadowOffsetOuter1" result="shadowBlurOuter1"></feGaussianBlur>
            <feColorMatrix values="0 0 0 0 0   0 0 0 0 0   0 0 0 0 0  0 0 0 0.199162138 0" type="matrix" in="shadowBlurOuter1"></feColorMatrix>
        </filter>
        <path d="M71.3298,57.2975 C69.9788,58.6485 67.7898,58.6485 66.4388,57.2975 C65.0888,55.9465 65.0888,53.7575 66.4388,52.4065 C67.7898,51.0565 69.9788,51.0565 71.3298,52.4065 C72.6808,53.7575 72.6808,55.9465 71.3298,57.2975" id="path-16"></path>
        <filter x="-50%" y="-50%" width="200%" height="200%" filterUnits="objectBoundingBox" id="filter-17">
            <feOffset dx="0" dy="0" in="SourceAlpha" result="shadowOffsetOuter1"></feOffset>
            <feGaussianBlur stdDeviation="3.5" in="shadowOffsetOuter1" result="shadowBlurOuter1"></feGaussianBlur>
            <feColorMatrix values="0 0 0 0 0   0 0 0 0 0   0 0 0 0 0  0 0 0 0.199162138 0" type="matrix" in="shadowBlurOuter1"></feColorMatrix>
        </filter>
        <path d="M71.8298,82.9604 C70.4788,84.3114 68.2898,84.3114 66.9388,82.9604 C65.5888,81.6094 65.5888,79.4204 66.9388,78.0694 C68.2898,76.7194 70.4788,76.7194 71.8298,78.0694 C73.1808,79.4204 73.1808,81.6094 71.8298,82.9604" id="path-18"></path>
        <filter x="-50%" y="-50%" width="200%" height="200%" filterUnits="objectBoundingBox" id="filter-19">
            <feOffset dx="0" dy="0" in="SourceAlpha" result="shadowOffsetOuter1"></feOffset>
            <feGaussianBlur stdDeviation="3.5" in="shadowOffsetOuter1" result="shadowBlurOuter1"></feGaussianBlur>
            <feColorMatrix values="0 0 0 0 0   0 0 0 0 0   0 0 0 0 0  0 0 0 0.199162138 0" type="matrix" in="shadowBlurOuter1"></feColorMatrix>
        </filter>
        <path d="M97.9927,56.7975 C96.6417,58.1485 94.4527,58.1485 93.1017,56.7975 C91.7517,55.4465 91.7517,53.2575 93.1017,51.9065 C94.4527,50.5565 96.6417,50.5565 97.9927,51.9065 C99.3437,53.2575 99.3437,55.4465 97.9927,56.7975" id="path-20"></path>
        <filter x="-50%" y="-50%" width="200%" height="200%" filterUnits="objectBoundingBox" id="filter-21">
            <feOffset dx="0" dy="0" in="SourceAlpha" result="shadowOffsetOuter1"></feOffset>
            <feGaussianBlur stdDeviation="3.5" in="shadowOffsetOuter1" result="shadowBlurOuter1"></feGaussianBlur>
            <feColorMatrix values="0 0 0 0 0   0 0 0 0 0   0 0 0 0 0  0 0 0 0.199162138 0" type="matrix" in="shadowBlurOuter1"></feColorMatrix>
        </filter>
        <path d="M103.9242,67.9335 C103.9242,69.8435 102.3762,71.3915 100.4662,71.3915 C98.5562,71.3915 97.0072,69.8435 97.0072,67.9335 C97.0072,66.0235 98.5562,64.4755 100.4662,64.4755 C102.3762,64.4755 103.9242,66.0235 103.9242,67.9335" id="path-22"></path>
        <filter x="-50%" y="-50%" width="200%" height="200%" filterUnits="objectBoundingBox" id="filter-23">
            <feOffset dx="0" dy="0" in="SourceAlpha" result="shadowOffsetOuter1"></feOffset>
            <feGaussianBlur stdDeviation="3.5" in="shadowOffsetOuter1" result="shadowBlurOuter1"></feGaussianBlur>
            <feColorMatrix values="0 0 0 0 0   0 0 0 0 0   0 0 0 0 0  0 0 0 0.199162138 0" type="matrix" in="shadowBlurOuter1"></feColorMatrix>
        </filter>
        <path d="M66.9242,67.9335 C66.9242,69.8435 65.3762,71.3915 63.4662,71.3915 C61.5562,71.3915 60.0072,69.8435 60.0072,67.9335 C60.0072,66.0235 61.5562,64.4755 63.4662,64.4755 C65.3762,64.4755 66.9242,66.0235 66.9242,67.9335" id="path-24"></path>
        <filter x="-50%" y="-50%" width="200%" height="200%" filterUnits="objectBoundingBox" id="filter-25">
            <feOffset dx="0" dy="0" in="SourceAlpha" result="shadowOffsetOuter1"></feOffset>
            <feGaussianBlur stdDeviation="3.5" in="shadowOffsetOuter1" result="shadowBlurOuter1"></feGaussianBlur>
            <feColorMatrix values="0 0 0 0 0   0 0 0 0 0   0 0 0 0 0  0 0 0 0.199162138 0" type="matrix" in="shadowBlurOuter1"></feColorMatrix>
        </filter>
        <path d="M85.9242,85.9335 C85.9242,87.8435 84.3762,89.3915 82.4662,89.3915 C80.5562,89.3915 79.0072,87.8435 79.0072,85.9335 C79.0072,84.0235 80.5562,82.4755 82.4662,82.4755 C84.3762,82.4755 85.9242,84.0235 85.9242,85.9335" id="path-26"></path>
        <filter x="-50%" y="-50%" width="200%" height="200%" filterUnits="objectBoundingBox" id="filter-27">
            <feOffset dx="0" dy="0" in="SourceAlpha" result="shadowOffsetOuter1"></feOffset>
            <feGaussianBlur stdDeviation="3.5" in="shadowOffsetOuter1" result="shadowBlurOuter1"></feGaussianBlur>
            <feColorMatrix values="0 0 0 0 0   0 0 0 0 0   0 0 0 0 0  0 0 0 0.199162138 0" type="matrix" in="shadowBlurOuter1"></feColorMatrix>
        </filter>
        <path d="M85.9242,48.9335 C85.9242,50.8435 84.3762,52.3915 82.4662,52.3915 C80.5562,52.3915 79.0072,50.8435 79.0072,48.9335 C79.0072,47.0235 80.5562,45.4755 82.4662,45.4755 C84.3762,45.4755 85.9242,47.0235 85.9242,48.9335" id="path-28"></path>
        <filter x="-50%" y="-50%" width="200%" height="200%" filterUnits="objectBoundingBox" id="filter-29">
            <feOffset dx="0" dy="0" in="SourceAlpha" result="shadowOffsetOuter1"></feOffset>
            <feGaussianBlur stdDeviation="3.5" in="shadowOffsetOuter1" result="shadowBlurOuter1"></feGaussianBlur>
            <feColorMatrix values="0 0 0 0 0   0 0 0 0 0   0 0 0 0 0  0 0 0 0.199162138 0" type="matrix" in="shadowBlurOuter1"></feColorMatrix>
        </filter>
    </defs>
    <g id="Creative-ART" stroke="none" stroke-width="1" fill="none" fill-rule="evenodd">
        <g id="Contact" transform="translate(-17.000000, -76.000000)">
            <g id="contact" transform="translate(43.000000, 80.000000)">
                <g id="shadow" fill-opacity="1" fill="black">
                    <use filter="url(#filter-2)" xlink:href="#path-1"></use>
                </g>
                <g id="strok-shadow" transform="translate(0.000000, 119.000000)">
                    <g id="Stroke-60-Copy-3">
                        <use fill="black" fill-opacity="1" filter="url(#filter-4)" xlink:href="#path-3"></use>
                        <use stroke="#D3D2D2" stroke-width="6" stroke-linecap="round" stroke-linejoin="round" xlink:href="#path-3"></use>
                    </g>
                    <g id="Stroke-61-Copy-3">
                        <use fill="black" fill-opacity="1" filter="url(#filter-6)" xlink:href="#path-5"></use>
                        <use stroke="#D3D2D2" stroke-width="6" stroke-linecap="round" stroke-linejoin="round" xlink:href="#path-5"></use>
                    </g>
                    <g id="Stroke-62-Copy-3">
                        <use fill="black" fill-opacity="1" filter="url(#filter-8)" xlink:href="#path-7"></use>
                        <use stroke="#D3D2D2" stroke-width="6" stroke-linecap="round" stroke-linejoin="round" xlink:href="#path-7"></use>
                    </g>
                    <g id="Stroke-23-Copy">
                        <use fill="black" fill-opacity="1" filter="url(#filter-10)" xlink:href="#path-9"></use>
                        <use stroke="#D3D2D2" stroke-width="6" stroke-linecap="round" stroke-linejoin="round" xlink:href="#path-9"></use>
                    </g>
                </g>
                <mask id="mask-12" fill="white">
                    <use xlink:href="#path-11"></use>
                </mask>
                <g id="white--paper">
                    <use fill="black" fill-opacity="1" filter="url(#filter-13)" xlink:href="#path-11"></use>
                    <use fill="#FFFFFF" fill-rule="evenodd" xlink:href="#path-11"></use>
                </g>
                <g id="telephone" transform="translate(0.000000, 100.000000)">
                    <polygon id="Fill-6" fill="#727272" points="161.390625 22.9423828 75.4082031 27.6455078 74.3769531 7.76171875 160.211917 2.88867188"></polygon>
                    <g id="Group-2" transform="translate(0.000000, 13.000000)" stroke="#FFFFFF" stroke-width="6" stroke-linecap="round" stroke-linejoin="round">
                        <path d="M73.9403,4.1699 L39.9973,6.1339" id="Stroke-1"></path>
                        <path d="M47.6702,0.1946 L49.6032,33.6006 C49.7942,36.9086 52.6312,39.4346 55.9392,39.2436 L62.9282,38.8396" id="Stroke-4"></path>
                        <path d="M39.9971,6.1338 C18.0321,5.9928 10.4441,19.0828 9.2971,29.9548 C8.1341,40.9778 22.1581,60.2118 19.0071,75.0608 C16.2561,88.0318 -9.3589,101.8078 3.6741,114.0628 C17.0071,126.5988 28.0071,104.3918 41.1381,105.8578" id="Stroke-23"></path>
                        <path d="M40.5075,20.5483 L56.9685,18.9573" id="Stroke-63"></path>
                    </g>
                    <g id="Group" transform="translate(37.000000, 0.000000)">
                        <path d="M125.7917,12.029 L152.7467,10.469" id="Stroke-2" stroke="#FFFFFF" stroke-width="6" stroke-linecap="round" stroke-linejoin="round"></path>
                        <path d="M147.7964,28.7859 L146.4674,5.8239" id="Stroke-17" stroke="#FFFFFF" stroke-width="6" stroke-linecap="round" stroke-linejoin="round"></path>
                        <polyline id="Stroke-47" stroke="#FFFFFF" stroke-width="6" stroke-linecap="round" stroke-linejoin="round" points="106.0038 22.2748 106.0038 41.2748 59.0038 41.2748 59.0038 22.2748"></polyline>
                        <path d="M125.5061,24.3478 L123.0961,24.4868 L121.7211,0.7208 L124.1311,0.5808 C127.4391,0.3898 130.2761,2.9168 130.4671,6.2248 L131.1491,18.0108 C131.3411,21.3198 128.8141,24.1568 125.5061,24.3478" id="Fill-9" fill="#FFFFFF"></path>
                        <path d="M40.5619,29.2626 L38.1519,29.4016 C34.8439,29.5936 32.0069,27.0666 31.8159,23.7586 L31.1339,11.9716 C30.9419,8.6636 33.4689,5.8266 36.7769,5.6356 L39.1869,5.4956 L40.5619,29.2626 Z" id="Fill-11" fill="#FFFFFF"></path>
                        <path d="M168.0075,27.437 L180.3405,19.142" id="Stroke-60" stroke="#FFFFFF" stroke-width="6" stroke-linecap="round" stroke-linejoin="round"></path>
                        <path d="M174.0038,41.2748 L189.0038,41.2748" id="Stroke-61" stroke="#FFFFFF" stroke-width="6" stroke-linecap="round" stroke-linejoin="round"></path>
                        <path d="M170.3409,55.7355 L185.3409,62.7255" id="Stroke-62" stroke="#FFFFFF" stroke-width="6" stroke-linecap="round" stroke-linejoin="round"></path>
                        <path d="M8.2594,126.492 L5.7594,126.492 C2.5964,126.492 0.0094,123.905 0.0094,120.742 L0.0094,117.698 C0.0094,114.536 2.5964,111.948 5.7594,111.948 L8.2594,111.948 C11.4224,111.948 14.0094,114.536 14.0094,117.698 L14.0094,120.742 C14.0094,123.905 11.4224,126.492 8.2594,126.492" id="Fill-25" fill="#FFFFFF"></path>
                    </g>
                    <g id="Group-3" transform="translate(38.000000, 28.000000)">
                        <path d="M37.1895,38.1002 C29.0565,38.5712 22.0825,32.3592 21.6125,24.2272 C21.1415,16.0942 27.3525,9.1202 35.4855,8.6492" id="Fill-13" fill="#727272"></path>
                        <path d="M132.3521,16.3495 C131.8811,8.2165 138.0931,1.2425 146.2251,0.7725 C154.3581,0.3015 161.3321,6.5125 161.8031,14.6455" id="Fill-19" fill="#727272"></path>
                        <path d="M152.2453,54.1018 C151.8233,51.1458 149.2913,48.9508 146.3053,48.9508 L123.8633,48.9508 C122.4103,48.9508 121.0723,48.1628 120.3663,46.8928 L115.3113,31.4508 L50.5713,31.4508 L44.6693,45.9788 C43.9503,47.1998 42.6393,47.9508 41.2213,47.9508 L19.7233,47.9508 C16.7333,47.9508 14.1993,50.1528 13.7823,53.1138 L2.5093,114.9508 L161.5093,114.9508 L152.2453,54.1018 Z M107.0075,67.4752 C107.0075,81.2822 95.8145,92.4752 82.0075,92.4752 C68.2005,92.4752 57.0075,81.2822 57.0075,67.4752 C57.0075,53.6682 68.2005,42.4752 82.0075,42.4752 C95.8145,42.4752 107.0075,53.6682 107.0075,67.4752 Z M94.5075,67.4752 C94.5075,74.3792 88.9115,79.9752 82.0075,79.9752 C75.1035,79.9752 69.5075,74.3792 69.5075,67.4752 C69.5075,60.5712 75.1035,54.9752 82.0075,54.9752 C88.9115,54.9752 94.5075,60.5712 94.5075,67.4752 Z" id="Combined-Shape" fill="#FFFFFF"></path>
                        <g id="Fill-57">
                            <use fill="black" fill-opacity="1" filter="url(#filter-15)" xlink:href="#path-14"></use>
                            <use fill="#FFFFFF" fill-rule="evenodd" xlink:href="#path-14"></use>
                        </g>
                        <path d="M77.0094,6.4036 L87.0094,6.4036 C90.3234,6.4036 93.0094,9.0896 93.0094,12.4036 L93.0094,27.5976 L71.0094,27.5976 L71.0094,12.4036 C71.0094,9.0896 73.6954,6.4036 77.0094,6.4036" id="Fill-45" fill="#727272"></path>
                        <polygon id="Fill-51" fill="#727272" points="164.006 130 0.014 130 0.014 123.95 164.006 123.95"></polygon>
                        <g id="Fill-56">
                            <use fill="black" fill-opacity="1" filter="url(#filter-17)" xlink:href="#path-16"></use>
                            <use fill="#FFFFFF" fill-rule="evenodd" xlink:href="#path-16"></use>
                        </g>
                        <g id="Fill-55">
                            <use fill="black" fill-opacity="1" filter="url(#filter-19)" xlink:href="#path-18"></use>
                            <use fill="#FFFFFF" fill-rule="evenodd" xlink:href="#path-18"></use>
                        </g>
                        <g id="Fill-54">
                            <use fill="black" fill-opacity="1" filter="url(#filter-21)" xlink:href="#path-20"></use>
                            <use fill="#FFFFFF" fill-rule="evenodd" xlink:href="#path-20"></use>
                        </g>
                        <g id="Fill-39">
                            <use fill="black" fill-opacity="1" filter="url(#filter-23)" xlink:href="#path-22"></use>
                            <use fill="#FFFFFF" fill-rule="evenodd" xlink:href="#path-22"></use>
                        </g>
                        <g id="Fill-37">
                            <use fill="black" fill-opacity="1" filter="url(#filter-25)" xlink:href="#path-24"></use>
                            <use fill="#FFFFFF" fill-rule="evenodd" xlink:href="#path-24"></use>
                        </g>
                        <g id="Fill-35">
                            <use fill="black" fill-opacity="1" filter="url(#filter-27)" xlink:href="#path-26"></use>
                            <use fill="#FFFFFF" fill-rule="evenodd" xlink:href="#path-26"></use>
                        </g>
                        <g id="Fill-33">
                            <use fill="black" fill-opacity="1" filter="url(#filter-29)" xlink:href="#path-28"></use>
                            <use fill="#FFFFFF" fill-rule="evenodd" xlink:href="#path-28"></use>
                        </g>
                    </g>
                    <path d="M79.5046,38.2618 L81.0296,64.6158 C81.1426,66.5628 79.6546,68.2338 77.7066,68.3468 L77.7066,68.3468 C75.7586,68.4588 74.0886,66.9718 73.9756,65.0238 L72.4506,38.6698 C72.3376,36.7218 73.8256,35.0518 75.7736,34.9388 L75.7736,34.9388 C77.7216,34.8258 79.3916,36.3138 79.5046,38.2618" id="Fill-15" fill="#FFFFFF"></path>
                    <path d="M198.3238,48.1591 L171.6038,49.7051 C169.7848,49.8101 168.2258,48.4211 168.1198,46.6031 C168.0148,44.7841 169.4038,43.2241 171.2228,43.1191 L197.9428,41.5731 C199.7618,41.4681 201.3208,42.8571 201.4258,44.6761 L201.4258,44.6761 C201.5318,46.4941 200.1428,48.0541 198.3238,48.1591" id="Fill-21" fill="#FFFFFF"></path>
                    <path d="M122,100 L129.5892,117.9282" id="Stroke-58" stroke="#FF4081" stroke-width="4" stroke-linecap="round" stroke-linejoin="round"></path>
                    <path d="M128.1657,95.4752 C128.1657,99.9812 124.5127,103.6332 120.0077,103.6332 C115.5017,103.6332 111.8497,99.9812 111.8497,95.4752 C111.8497,90.9692 115.5017,87.3172 120.0077,87.3172 C124.5127,87.3172 128.1657,90.9692 128.1657,95.4752" id="Fill-59" fill="#FF4081"></path>
                </g>
            </g>
        </g>
    </g>
</svg>