<?xml version="1.0" encoding="UTF-8" standalone="no"?>
<svg width="427px" height="334px" viewBox="0 0 427 334" version="1.1" xmlns="http://www.w3.org/2000/svg" xmlns:xlink="http://www.w3.org/1999/xlink">
    <!-- Generator: Sketch 3.8.3 (29802) - http://www.bohemiancoding.com/sketch -->
    <title>contact</title>
    <desc>Created with Sketch.</desc>
    <defs>
        <path d="M170.328167,103.296191 C170.414701,96.4131275 175.268699,90.5542852 181.881659,89.0957794 C181.771453,88.7018107 181.701065,88.280083 181.678004,87.8400454 L180.973491,74.397149 L172.095486,75.0179596 C170.127845,75.1555504 168.439064,73.9272159 168.323488,72.2743977 C168.207911,70.6215795 169.709306,69.1701661 171.676947,69.0325753 L180.659428,68.404459 L180.576103,66.8145364 C180.454391,64.4921228 181.697028,62.5391398 183.351612,62.4524267 C185.006196,62.3657137 186.446168,64.1781071 186.567881,66.5005207 L186.645724,67.9858564 L189.490591,67.786924 C191.458232,67.6493331 193.147013,68.8776676 193.262589,70.5304858 C193.378165,72.1833041 191.87677,73.6347174 189.90913,73.7723083 L186.959787,73.9785464 L187.669781,87.5260297 C187.695919,88.02478 187.659134,88.5064923 187.568859,88.9563411 C193.981053,90.048833 199.069636,95.3093427 199.75084,101.991103 C200.695989,102.524128 201.358607,103.512069 201.4258,104.6761 C201.5318,106.4941 200.1428,108.0541 198.3238,108.1591 L171.6038,109.7051 C169.7848,109.8101 168.2258,108.4211 168.1198,106.6031 C168.032852,105.096822 168.970364,103.768145 170.328167,103.296191 Z M72.9213774,96.6925331 C66.1688686,97.3395746 60.8497771,102.484831 59.7829017,108.963666 L54.3063284,109.210352 L53.1348191,108.218913 C52.9516361,108.063887 52.4479926,108.11441 51.7896858,108.32068 C52.4239732,107.240546 52.781222,105.607805 52.6865851,103.802025 L52.2248549,94.9916883 L56.7228479,94.5569452 C58.372017,94.3975485 59.5797162,92.9314163 59.4203195,91.2822472 C59.2609229,89.6330781 57.7947907,88.4253789 56.1456216,88.5847756 L51.910535,88.9941081 L51.5438124,81.9966235 L66.0894064,81.1549906 C67.1789496,81.0919478 68.0989439,80.4549735 68.5726656,79.5547817 L68.8159,83.7586 C69.0069,87.0666 71.8439,89.5936 75.1519,89.4016 L77.5619,89.2626 L77.4618471,87.5331762 L92.7478863,86.69705 L92.4392075,101.88922 C92.410138,103.31993 93.7282103,104.529879 95.3832045,104.591718 C96.325006,104.626909 97.1729627,104.282716 97.7342498,103.715875 C98.5506133,104.157774 99.5915268,104.422582 100.71315,104.418971 L108.973022,104.392373 L108.973022,115.764648 L130.973022,115.764648 L130.973022,104.321532 L141.639137,104.287187 C142.097459,104.285711 142.537585,104.239518 142.950359,104.1549 C143.412174,104.33675 143.935123,104.418832 144.479215,104.372568 C146.129409,104.232253 147.3492,102.96446 147.203693,101.540872 L145.392162,83.8174776 L160.011112,83.0178403 L160.0961,84.4868 L162.5061,84.3478 C165.8141,84.1568 168.3411,81.3198 168.1491,78.0108 L167.4671,66.2248 C167.2761,62.9168 164.4391,60.3898 161.1311,60.5808 L158.7211,60.7208 L158.83705,62.724922 L140.45523,64.0103041 L76.3116481,67.6518817 L76.1869,65.4956 L73.7769,65.6356 C70.4689,65.8266 67.9419,68.6636 68.1339,71.9716 L68.394071,76.4681334 C67.8196858,75.6285831 66.8323619,75.1019664 65.7428158,75.1650094 L51.229792,76.0047578 L51.1933962,75.310284 C51.0284631,72.1631732 49.5534534,69.6822307 47.8988698,69.7689437 C46.2442862,69.8556568 45.0366859,72.4771889 45.201619,75.6242997 L45.2397223,76.3513534 L31.7998158,77.1290094 C30.1457282,77.2247177 28.8824121,78.6432076 28.9781205,80.2972953 C29.0738288,81.9513829 30.4923187,83.2146989 32.1464064,83.1189906 L45.5537427,82.3432192 L45.9325814,89.5718934 L39.6846216,90.1757756 C38.0354525,90.3351722 36.8277533,91.8013044 36.9871499,93.4504735 C37.1465466,95.0996426 38.6126788,96.3073418 40.2618479,96.1479452 L46.2469013,95.5694736 L46.6948079,104.11604 C46.8343547,106.778754 47.9117258,108.964587 49.2422078,109.521865 C47.9751666,110.306071 47.2334271,111.091896 47.548851,111.358837 L51.0630616,114.332886 C51.2313748,114.475328 51.670234,114.444237 52.2510284,114.278245 C52.640866,114.877836 53.2184308,115.240713 53.8690712,115.211405 L60.0208447,114.934305 C61.6169661,121.386977 67.4269528,126.07724 74.2187209,126.124941 C74.7655548,127.501175 76.1469778,128.43647 77.7066,128.3468 C79.6546,128.2338 81.1426,126.5628 81.0296,124.6158 L79.5046,98.2618 C79.3916,96.3138 77.7216,94.8258 75.7736,94.9388 C74.5438535,95.0101354 73.4974275,95.701971 72.9213774,96.6925331 Z M98.7523738,86.3686125 L98.5018801,98.6970963 C99.0730609,98.5176597 99.7146669,98.4164825 100.396552,98.4142868 L109.383325,98.3853489 C110.256927,96.152149 112.430093,94.5706479 114.973022,94.5706479 L124.973022,94.5706479 C127.490021,94.5706479 129.64476,96.1200603 130.53559,98.3172374 L140.84299,98.284047 L139.397857,84.1453582 L98.7523738,86.3686125 Z M43.5097698,186.492 L42.7594,186.492 C39.5964,186.492 37.0094,183.905 37.0094,180.742 L37.0094,177.698 C37.0094,174.536 39.5964,171.948 42.7594,171.948 L45.2594,171.948 C45.5616323,171.948 45.8586056,171.971629 46.1485655,172.01713 L51.7823,141.1138 C52.1993,138.1528 54.7333,135.9508 57.7233,135.9508 L79.2213,135.9508 C80.6393,135.9508 81.9503,135.1998 82.6693,133.9788 L88.5713,119.4508 L153.3113,119.4508 L158.3663,134.8928 C159.0723,136.1628 160.4103,136.9508 161.8633,136.9508 L184.3053,136.9508 C187.2913,136.9508 189.8233,139.1458 190.2453,142.1018 L199.5093,202.9508 L40.5093,202.9508 L43.5097698,186.492 Z M145.0075,155.4752 C145.0075,169.2822 133.8145,180.4752 120.0075,180.4752 C106.2005,180.4752 95.0075,169.2822 95.0075,155.4752 C95.0075,141.6682 106.2005,130.4752 120.0075,130.4752 C133.8145,130.4752 145.0075,141.6682 145.0075,155.4752 Z M132.5075,155.4752 C132.5075,162.3792 126.9115,167.9752 120.0075,167.9752 C113.1035,167.9752 107.5075,162.3792 107.5075,155.4752 C107.5075,148.5712 113.1035,142.9752 120.0075,142.9752 C126.9115,142.9752 132.5075,148.5712 132.5075,155.4752 Z M135.4927,171.4604 C134.1417,172.8114 131.9527,172.8114 130.6017,171.4604 C129.2517,170.1094 129.2517,167.9204 130.6017,166.5694 C131.9527,165.2194 134.1417,165.2194 135.4927,166.5694 C136.8437,167.9204 136.8437,170.1094 135.4927,171.4604 Z M202.006,218 L38.014,218 L38.014,211.95 L202.006,211.95 L202.006,218 Z M109.3298,145.2975 C107.9788,146.6485 105.7898,146.6485 104.4388,145.2975 C103.0888,143.9465 103.0888,141.7575 104.4388,140.4065 C105.7898,139.0565 107.9788,139.0565 109.3298,140.4065 C110.6808,141.7575 110.6808,143.9465 109.3298,145.2975 Z M109.8298,170.9604 C108.4788,172.3114 106.2898,172.3114 104.9388,170.9604 C103.5888,169.6094 103.5888,167.4204 104.9388,166.0694 C106.2898,164.7194 108.4788,164.7194 109.8298,166.0694 C111.1808,167.4204 111.1808,169.6094 109.8298,170.9604 Z M135.9927,144.7975 C134.6417,146.1485 132.4527,146.1485 131.1017,144.7975 C129.7517,143.4465 129.7517,141.2575 131.1017,139.9065 C132.4527,138.5565 134.6417,138.5565 135.9927,139.9065 C137.3437,141.2575 137.3437,143.4465 135.9927,144.7975 Z M141.9242,155.9335 C141.9242,157.8435 140.3762,159.3915 138.4662,159.3915 C136.5562,159.3915 135.0072,157.8435 135.0072,155.9335 C135.0072,154.0235 136.5562,152.4755 138.4662,152.4755 C140.3762,152.4755 141.9242,154.0235 141.9242,155.9335 Z M104.9242,155.9335 C104.9242,157.8435 103.3762,159.3915 101.4662,159.3915 C99.5562,159.3915 98.0072,157.8435 98.0072,155.9335 C98.0072,154.0235 99.5562,152.4755 101.4662,152.4755 C103.3762,152.4755 104.9242,154.0235 104.9242,155.9335 Z M123.9242,173.9335 C123.9242,175.8435 122.3762,177.3915 120.4662,177.3915 C118.5562,177.3915 117.0072,175.8435 117.0072,173.9335 C117.0072,172.0235 118.5562,170.4755 120.4662,170.4755 C122.3762,170.4755 123.9242,172.0235 123.9242,173.9335 Z M123.9242,136.9335 C123.9242,138.8435 122.3762,140.3915 120.4662,140.3915 C118.5562,140.3915 117.0072,138.8435 117.0072,136.9335 C117.0072,135.0235 118.5562,133.4755 120.4662,133.4755 C122.3762,133.4755 123.9242,135.0235 123.9242,136.9335 Z" id="path-1"></path>
        <filter x="-50%" y="-50%" width="200%" height="200%" filterUnits="objectBoundingBox" id="filter-2">
            <feOffset dx="0" dy="20" in="SourceAlpha" result="shadowOffsetOuter1"></feOffset>
            <feGaussianBlur stdDeviation="12" in="shadowOffsetOuter1" result="shadowBlurOuter1"></feGaussianBlur>
            <feColorMatrix values="0 0 0 0 0   0 0 0 0 0   0 0 0 0 0  0 0 0 0.186679121 0" type="matrix" in="shadowBlurOuter1" result="shadowMatrixOuter1"></feColorMatrix>
            <feOffset dx="0" dy="0" in="SourceAlpha" result="shadowOffsetOuter2"></feOffset>
            <feGaussianBlur stdDeviation="2" in="shadowOffsetOuter2" result="shadowBlurOuter2"></feGaussianBlur>
            <feColorMatrix values="0 0 0 0 0   0 0 0 0 0   0 0 0 0 0  0 0 0 0.102751359 0" type="matrix" in="shadowBlurOuter2" result="shadowMatrixOuter2"></feColorMatrix>
            <feMerge>
                <feMergeNode in="shadowMatrixOuter1"></feMergeNode>
                <feMergeNode in="shadowMatrixOuter2"></feMergeNode>
            </feMerge>
        </filter>
        <path d="M205.0075,8.437 L217.3405,0.142" id="path-3"></path>
        <filter x="-50%" y="-50%" width="200%" height="200%" filterUnits="objectBoundingBox" id="filter-4">
            <feMorphology radius="3" operator="dilate" in="SourceAlpha" result="shadowSpreadOuter1"></feMorphology>
            <feOffset dx="0" dy="20" in="shadowSpreadOuter1" result="shadowOffsetOuter1"></feOffset>
            <feMorphology radius="3" operator="erode" in="SourceAlpha" result="shadowInner"></feMorphology>
            <feOffset dx="0" dy="20" in="shadowInner" result="shadowInner"></feOffset>
            <feComposite in="shadowOffsetOuter1" in2="shadowInner" operator="out" result="shadowOffsetOuter1"></feComposite>
            <feGaussianBlur stdDeviation="12" in="shadowOffsetOuter1" result="shadowBlurOuter1"></feGaussianBlur>
            <feColorMatrix values="0 0 0 0 0   0 0 0 0 0   0 0 0 0 0  0 0 0 0.15 0" type="matrix" in="shadowBlurOuter1" result="shadowMatrixOuter1"></feColorMatrix>
            <feMorphology radius="3" operator="dilate" in="SourceAlpha" result="shadowSpreadOuter2"></feMorphology>
            <feOffset dx="0" dy="0" in="shadowSpreadOuter2" result="shadowOffsetOuter2"></feOffset>
            <feMorphology radius="3" operator="erode" in="SourceAlpha" result="shadowInner"></feMorphology>
            <feOffset dx="0" dy="0" in="shadowInner" result="shadowInner"></feOffset>
            <feComposite in="shadowOffsetOuter2" in2="shadowInner" operator="out" result="shadowOffsetOuter2"></feComposite>
            <feGaussianBlur stdDeviation="2" in="shadowOffsetOuter2" result="shadowBlurOuter2"></feGaussianBlur>
            <feColorMatrix values="0 0 0 0 0   0 0 0 0 0   0 0 0 0 0  0 0 0 0.1 0" type="matrix" in="shadowBlurOuter2" result="shadowMatrixOuter2"></feColorMatrix>
            <feMerge>
                <feMergeNode in="shadowMatrixOuter1"></feMergeNode>
                <feMergeNode in="shadowMatrixOuter2"></feMergeNode>
            </feMerge>
        </filter>
        <path d="M211.0038,22.2748 L226.0038,22.2748" id="path-5"></path>
        <filter x="-50%" y="-50%" width="200%" height="200%" filterUnits="objectBoundingBox" id="filter-6">
            <feMorphology radius="3" operator="dilate" in="SourceAlpha" result="shadowSpreadOuter1"></feMorphology>
            <feOffset dx="0" dy="20" in="shadowSpreadOuter1" result="shadowOffsetOuter1"></feOffset>
            <feMorphology radius="3" operator="erode" in="SourceAlpha" result="shadowInner"></feMorphology>
            <feOffset dx="0" dy="20" in="shadowInner" result="shadowInner"></feOffset>
            <feComposite in="shadowOffsetOuter1" in2="shadowInner" operator="out" result="shadowOffsetOuter1"></feComposite>
            <feGaussianBlur stdDeviation="12" in="shadowOffsetOuter1" result="shadowBlurOuter1"></feGaussianBlur>
            <feColorMatrix values="0 0 0 0 0   0 0 0 0 0   0 0 0 0 0  0 0 0 0.15 0" type="matrix" in="shadowBlurOuter1" result="shadowMatrixOuter1"></feColorMatrix>
            <feMorphology radius="3" operator="dilate" in="SourceAlpha" result="shadowSpreadOuter2"></feMorphology>
            <feOffset dx="0" dy="0" in="shadowSpreadOuter2" result="shadowOffsetOuter2"></feOffset>
            <feMorphology radius="3" operator="erode" in="SourceAlpha" result="shadowInner"></feMorphology>
            <feOffset dx="0" dy="0" in="shadowInner" result="shadowInner"></feOffset>
            <feComposite in="shadowOffsetOuter2" in2="shadowInner" operator="out" result="shadowOffsetOuter2"></feComposite>
            <feGaussianBlur stdDeviation="2" in="shadowOffsetOuter2" result="shadowBlurOuter2"></feGaussianBlur>
            <feColorMatrix values="0 0 0 0 0   0 0 0 0 0   0 0 0 0 0  0 0 0 0.1 0" type="matrix" in="shadowBlurOuter2" result="shadowMatrixOuter2"></feColorMatrix>
            <feMerge>
                <feMergeNode in="shadowMatrixOuter1"></feMergeNode>
                <feMergeNode in="shadowMatrixOuter2"></feMergeNode>
            </feMerge>
        </filter>
        <path d="M207.3409,36.7355 L222.3409,43.7255" id="path-7"></path>
        <filter x="-50%" y="-50%" width="200%" height="200%" filterUnits="objectBoundingBox" id="filter-8">
            <feMorphology radius="3" operator="dilate" in="SourceAlpha" result="shadowSpreadOuter1"></feMorphology>
            <feOffset dx="0" dy="20" in="shadowSpreadOuter1" result="shadowOffsetOuter1"></feOffset>
            <feMorphology radius="3" operator="erode" in="SourceAlpha" result="shadowInner"></feMorphology>
            <feOffset dx="0" dy="20" in="shadowInner" result="shadowInner"></feOffset>
            <feComposite in="shadowOffsetOuter1" in2="shadowInner" operator="out" result="shadowOffsetOuter1"></feComposite>
            <feGaussianBlur stdDeviation="12" in="shadowOffsetOuter1" result="shadowBlurOuter1"></feGaussianBlur>
            <feColorMatrix values="0 0 0 0 0   0 0 0 0 0   0 0 0 0 0  0 0 0 0.15 0" type="matrix" in="shadowBlurOuter1" result="shadowMatrixOuter1"></feColorMatrix>
            <feMorphology radius="3" operator="dilate" in="SourceAlpha" result="shadowSpreadOuter2"></feMorphology>
            <feOffset dx="0" dy="0" in="shadowSpreadOuter2" result="shadowOffsetOuter2"></feOffset>
            <feMorphology radius="3" operator="erode" in="SourceAlpha" result="shadowInner"></feMorphology>
            <feOffset dx="0" dy="0" in="shadowInner" result="shadowInner"></feOffset>
            <feComposite in="shadowOffsetOuter2" in2="shadowInner" operator="out" result="shadowOffsetOuter2"></feComposite>
            <feGaussianBlur stdDeviation="2" in="shadowOffsetOuter2" result="shadowBlurOuter2"></feGaussianBlur>
            <feColorMatrix values="0 0 0 0 0   0 0 0 0 0   0 0 0 0 0  0 0 0 0.1 0" type="matrix" in="shadowBlurOuter2" result="shadowMatrixOuter2"></feColorMatrix>
            <feMerge>
                <feMergeNode in="shadowMatrixOuter1"></feMergeNode>
                <feMergeNode in="shadowMatrixOuter2"></feMergeNode>
            </feMerge>
        </filter>
        <path d="M39.9971,0.1338 C18.0321,-0.0072 10.4441,13.0828 9.2971,23.9548 C8.1341,34.9778 22.1581,54.2118 19.0071,69.0608 C16.2561,82.0318 -9.3589,95.8078 3.6741,108.0628 C17.0071,120.5988 28.0071,98.3918 41.1381,99.8578" id="path-9"></path>
        <filter x="-50%" y="-50%" width="200%" height="200%" filterUnits="objectBoundingBox" id="filter-10">
            <feMorphology radius="3" operator="dilate" in="SourceAlpha" result="shadowSpreadOuter1"></feMorphology>
            <feOffset dx="0" dy="0" in="shadowSpreadOuter1" result="shadowOffsetOuter1"></feOffset>
            <feMorphology radius="3" operator="erode" in="SourceAlpha" result="shadowInner"></feMorphology>
            <feOffset dx="0" dy="0" in="shadowInner" result="shadowInner"></feOffset>
            <feComposite in="shadowOffsetOuter1" in2="shadowInner" operator="out" result="shadowOffsetOuter1"></feComposite>
            <feGaussianBlur stdDeviation="12" in="shadowOffsetOuter1" result="shadowBlurOuter1"></feGaussianBlur>
            <feColorMatrix values="0 0 0 0 0   0 0 0 0 0   0 0 0 0 0  0 0 0 0.293166893 0" type="matrix" in="shadowBlurOuter1"></feColorMatrix>
        </filter>
        <path d="M209.059775,126.050416 C208.348327,126.720296 207.536718,127.136165 206.666417,127.220126 L193.034258,128.538337 L193.037369,128.647188 L194.060066,128.647188 C198.074646,128.647188 201.478837,131.984679 202.046202,136.479268 L214.501348,229 L121,229 L121,284.001455 C121,285.101744 121.897592,286 123.004829,286 L374.995171,286 C376.098298,286 377,285.105221 377,284.001455 L377,1.99854545 C377,0.898256262 376.102408,0 374.995171,0 L123.004829,0 C121.901702,0 121,0.894779278 121,1.99854545 L121,59.9950356 L156.906932,58.111033 L156.696688,54.9090193 L160.691675,54.7045292 C166.175249,54.4255463 170.878061,58.1165924 171.194676,62.9484011 L171.357208,65.4233498 L177.416918,64.9980746 L177.253065,62.6633469 C177.011409,59.2200101 179.606884,56.2327331 183.050221,55.991077 C186.493558,55.7494209 189.480835,58.344896 189.722491,61.7882328 L189.886344,64.1229604 L193.936512,63.8387164 C197.379849,63.5970603 200.367126,66.1925354 200.608782,69.6358722 C200.850438,73.079209 198.254963,76.066486 194.811626,76.3081421 L190.761458,76.5923861 L191.055507,80.7822686 C192.525229,81.0779394 193.958504,81.4989481 195.345495,82.035519 L215.174622,69.2345893 C219.348339,66.5401967 225.007475,67.6034816 227.814658,71.6095024 C230.62184,75.6155233 229.514045,81.0472816 225.340328,83.7416741 L211.390679,92.7470371 L232.055909,92.0253914 C237.145776,91.8476493 241.410228,95.6639288 241.580829,100.54929 C241.751429,105.434652 237.763576,109.539108 232.673709,109.71685 L216.897376,110.267772 L231.749199,116.910645 C236.3084,118.949868 238.282044,124.150448 236.157456,128.526465 C234.032869,132.902481 228.614588,134.796826 224.055388,132.757602 L209.059775,126.050416 Z" id="path-11"></path>
        <filter x="-50%" y="-50%" width="200%" height="200%" filterUnits="objectBoundingBox" id="filter-13">
            <feOffset dx="0" dy="0" in="SourceAlpha" result="shadowOffsetOuter1"></feOffset>
            <feGaussianBlur stdDeviation="2" in="shadowOffsetOuter1" result="shadowBlurOuter1"></feGaussianBlur>
            <feColorMatrix values="0 0 0 0 0   0 0 0 0 0   0 0 0 0 0  0 0 0 0.12 0" type="matrix" in="shadowBlurOuter1" result="shadowMatrixOuter1"></feColorMatrix>
            <feOffset dx="0" dy="20" in="SourceAlpha" result="shadowOffsetOuter2"></feOffset>
            <feGaussianBlur stdDeviation="12" in="shadowOffsetOuter2" result="shadowBlurOuter2"></feGaussianBlur>
            <feColorMatrix values="0 0 0 0 0   0 0 0 0 0   0 0 0 0 0  0 0 0 0.15 0" type="matrix" in="shadowBlurOuter2" result="shadowMatrixOuter2"></feColorMatrix>
            <feMerge>
                <feMergeNode in="shadowMatrixOuter1"></feMergeNode>
                <feMergeNode in="shadowMatrixOuter2"></feMergeNode>
            </feMerge>
        </filter>
        <path d="M97.4927,83.4604 C96.1417,84.8114 93.9527,84.8114 92.6017,83.4604 C91.2517,82.1094 91.2517,79.9204 92.6017,78.5694 C93.9527,77.2194 96.1417,77.2194 97.4927,78.5694 C98.8437,79.9204 98.8437,82.1094 97.4927,83.4604" id="path-14"></path>
        <filter x="-50%" y="-50%" width="200%" height="200%" filterUnits="objectBoundingBox" id="filter-15">
            <feOffset dx="0" dy="0" in="SourceAlpha" result="shadowOffsetOuter1"></feOffset>
            <feGaussianBlur stdDeviation="3.5" in="shadowOffsetOuter1" result="shadowBlurOuter1"></feGaussianBlur>
            <feColorMatrix values="0 0 0 0 0   0 0 0 0 0   0 0 0 0 0  0 0 0 0.199162138 0" type="matrix" in="shadowBlurOuter1"></feColorMatrix>
        </filter>
        <path d="M71.3298,57.2975 C69.9788,58.6485 67.7898,58.6485 66.4388,57.2975 C65.0888,55.9465 65.0888,53.7575 66.4388,52.4065 C67.7898,51.0565 69.9788,51.0565 71.3298,52.4065 C72.6808,53.7575 72.6808,55.9465 71.3298,57.2975" id="path-16"></path>
        <filter x="-50%" y="-50%" width="200%" height="200%" filterUnits="objectBoundingBox" id="filter-17">
            <feOffset dx="0" dy="0" in="SourceAlpha" result="shadowOffsetOuter1"></feOffset>
            <feGaussianBlur stdDeviation="3.5" in="shadowOffsetOuter1" result="shadowBlurOuter1"></feGaussianBlur>
            <feColorMatrix values="0 0 0 0 0   0 0 0 0 0   0 0 0 0 0  0 0 0 0.199162138 0" type="matrix" in="shadowBlurOuter1"></feColorMatrix>
        </filter>
        <path d="M71.8298,82.9604 C70.4788,84.3114 68.2898,84.3114 66.9388,82.9604 C65.5888,81.6094 65.5888,79.4204 66.9388,78.0694 C68.2898,76.7194 70.4788,76.7194 71.8298,78.0694 C73.1808,79.4204 73.1808,81.6094 71.8298,82.9604" id="path-18"></path>
        <filter x="-50%" y="-50%" width="200%" height="200%" filterUnits="objectBoundingBox" id="filter-19">
            <feOffset dx="0" dy="0" in="SourceAlpha" result="shadowOffsetOuter1"></feOffset>
            <feGaussianBlur stdDeviation="3.5" in="shadowOffsetOuter1" result="shadowBlurOuter1"></feGaussianBlur>
            <feColorMatrix values="0 0 0 0 0   0 0 0 0 0   0 0 0 0 0  0 0 0 0.199162138 0" type="matrix" in="shadowBlurOuter1"></feColorMatrix>
        </filter>
        <path d="M97.9927,56.7975 C96.6417,58.1485 94.4527,58.1485 93.1017,56.7975 C91.7517,55.4465 91.7517,53.2575 93.1017,51.9065 C94.4527,50.5565 96.6417,50.5565 97.9927,51.9065 C99.3437,53.2575 99.3437,55.4465 97.9927,56.7975" id="path-20"></path>
        <filter x="-50%" y="-50%" width="200%" height="200%" filterUnits="objectBoundingBox" id="filter-21">
            <feOffset dx="0" dy="0" in="SourceAlpha" result="shadowOffsetOuter1"></feOffset>
            <feGaussianBlur stdDeviation="3.5" in="shadowOffsetOuter1" result="shadowBlurOuter1"></feGaussianBlur>
            <feColorMatrix values="0 0 0 0 0   0 0 0 0 0   0 0 0 0 0  0 0 0 0.199162138 0" type="matrix" in="shadowBlurOuter1"></feColorMatrix>
        </filter>
        <path d="M103.9242,67.9335 C103.9242,69.8435 102.3762,71.3915 100.4662,71.3915 C98.5562,71.3915 97.0072,69.8435 97.0072,67.9335 C97.0072,66.0235 98.5562,64.4755 100.4662,64.4755 C102.3762,64.4755 103.9242,66.0235 103.9242,67.9335" id="path-22"></path>
        <filter x="-50%" y="-50%" width="200%" height="200%" filterUnits="objectBoundingBox" id="filter-23">
            <feOffset dx="0" dy="0" in="SourceAlpha" result="shadowOffsetOuter1"></feOffset>
            <feGaussianBlur stdDeviation="3.5" in="shadowOffsetOuter1" result="shadowBlurOuter1"></feGaussianBlur>
            <feColorMatrix values="0 0 0 0 0   0 0 0 0 0   0 0 0 0 0  0 0 0 0.199162138 0" type="matrix" in="shadowBlurOuter1"></feColorMatrix>
        </filter>
        <path d="M66.9242,67.9335 C66.9242,69.8435 65.3762,71.3915 63.4662,71.3915 C61.5562,71.3915 60.0072,69.8435 60.0072,67.9335 C60.0072,66.0235 61.5562,64.4755 63.4662,64.4755 C65.3762,64.4755 66.9242,66.0235 66.9242,67.9335" id="path-24"></path>
        <filter x="-50%" y="-50%" width="200%" height="200%" filterUnits="objectBoundingBox" id="filter-25">
            <feOffset dx="0" dy="0" in="SourceAlpha" result="shadowOffsetOuter1"></feOffset>
            <feGaussianBlur stdDeviation="3.5" in="shadowOffsetOuter1" result="shadowBlurOuter1"></feGaussianBlur>
            <feColorMatrix values="0 0 0 0 0   0 0 0 0 0   0 0 0 0 0  0 0 0 0.199162138 0" type="matrix" in="shadowBlurOuter1"></feColorMatrix>
        </filter>
        <path d="M85.9242,85.9335 C85.9242,87.8435 84.3762,89.3915 82.4662,89.3915 C80.5562,89.3915 79.0072,87.8435 79.0072,85.9335 C79.0072,84.0235 80.5562,82.4755 82.4662,82.4755 C84.3762,82.4755 85.9242,84.0235 85.9242,85.9335" id="path-26"></path>
        <filter x="-50%" y="-50%" width="200%" height="200%" filterUnits="objectBoundingBox" id="filter-27">
            <feOffset dx="0" dy="0" in="SourceAlpha" result="shadowOffsetOuter1"></feOffset>
            <feGaussianBlur stdDeviation="3.5" in="shadowOffsetOuter1" result="shadowBlurOuter1"></feGaussianBlur>
            <feColorMatrix values="0 0 0 0 0   0 0 0 0 0   0 0 0 0 0  0 0 0 0.199162138 0" type="matrix" in="shadowBlurOuter1"></feColorMatrix>
        </filter>
        <path d="M85.9242,48.9335 C85.9242,50.8435 84.3762,52.3915 82.4662,52.3915 C80.5562,52.3915 79.0072,50.8435 79.0072,48.9335 C79.0072,47.0235 80.5562,45.4755 82.4662,45.4755 C84.3762,45.4755 85.9242,47.0235 85.9242,48.9335" id="path-28"></path>
        <filter x="-50%" y="-50%" width="200%" height="200%" filterUnits="objectBoundingBox" id="filter-29">
            <feOffset dx="0" dy="0" in="SourceAlpha" result="shadowOffsetOuter1"></feOffset>
            <feGaussianBlur stdDeviation="3.5" in="shadowOffsetOuter1" result="shadowBlurOuter1"></feGaussianBlur>
            <feColorMatrix values="0 0 0 0 0   0 0 0 0 0   0 0 0 0 0  0 0 0 0.199162138 0" type="matrix" in="shadowBlurOuter1"></feColorMatrix>
        </filter>
    </defs>
    <g id="Creative-ART" stroke="none" stroke-width="1" fill="none" fill-rule="evenodd">
        <g id="Contact" transform="translate(-17.000000, -116.000000)">
            <g id="contact" transform="translate(43.000000, 120.000000)">
                <g id="shadow" fill-opacity="1" fill="black">
                    <use filter="url(#filter-2)" xlink:href="#path-1"></use>
                </g>
                <g id="strok-shadow" transform="translate(0.000000, 79.000000)">
                    <g id="Stroke-60-Copy-3">
                        <use fill="black" fill-opacity="1" filter="url(#filter-4)" xlink:href="#path-3"></use>
                        <use stroke="#D3D2D2" stroke-width="6" stroke-linecap="round" stroke-linejoin="round" xlink:href="#path-3"></use>
                    </g>
                    <g id="Stroke-61-Copy-3">
                        <use fill="black" fill-opacity="1" filter="url(#filter-6)" xlink:href="#path-5"></use>
                        <use stroke="#D3D2D2" stroke-width="6" stroke-linecap="round" stroke-linejoin="round" xlink:href="#path-5"></use>
                    </g>
                    <g id="Stroke-62-Copy-3">
                        <use fill="black" fill-opacity="1" filter="url(#filter-8)" xlink:href="#path-7"></use>
                        <use stroke="#D3D2D2" stroke-width="6" stroke-linecap="round" stroke-linejoin="round" xlink:href="#path-7"></use>
                    </g>
                    <g id="Stroke-23-Copy">
                        <use fill="black" fill-opacity="1" filter="url(#filter-10)" xlink:href="#path-9"></use>
                        <use stroke="#D3D2D2" stroke-width="6" stroke-linecap="round" stroke-linejoin="round" xlink:href="#path-9"></use>
                    </g>
                </g>
                <mask id="mask-12" fill="white">
                    <use xlink:href="#path-11"></use>
                </mask>
                <g id="white--paper">
                    <use fill="black" fill-opacity="1" filter="url(#filter-13)" xlink:href="#path-11"></use>
                    <use fill="#FFFFFF" fill-rule="evenodd" xlink:href="#path-11"></use>
                </g>
                <g id="telephone" transform="translate(0.000000, 60.000000)">
                    <polygon id="Fill-6" fill="#727272" points="161.390625 22.9423828 75.4082031 27.6455078 74.3769531 7.76171875 160.211917 2.88867188"></polygon>
                    <g id="Group-2" transform="translate(0.000000, 13.000000)" stroke="#FFFFFF" stroke-width="6" stroke-linecap="round" stroke-linejoin="round">
                        <path d="M73.9403,4.1699 L39.9973,6.1339" id="Stroke-1"></path>
                        <path d="M47.6702,0.1946 L49.6032,33.6006 C49.7942,36.9086 52.6312,39.4346 55.9392,39.2436 L62.9282,38.8396" id="Stroke-4"></path>
                        <path d="M39.9971,6.1338 C18.0321,5.9928 10.4441,19.0828 9.2971,29.9548 C8.1341,40.9778 22.1581,60.2118 19.0071,75.0608 C16.2561,88.0318 -9.3589,101.8078 3.6741,114.0628 C17.0071,126.5988 28.0071,104.3918 41.1381,105.8578" id="Stroke-23"></path>
                        <path d="M40.5075,20.5483 L56.9685,18.9573" id="Stroke-63"></path>
                    </g>
                    <g id="Group" transform="translate(37.000000, 0.000000)">
                        <path d="M125.7917,12.029 L152.7467,10.469" id="Stroke-2" stroke="#FFFFFF" stroke-width="6" stroke-linecap="round" stroke-linejoin="round"></path>
                        <path d="M147.7964,28.7859 L146.4674,5.8239" id="Stroke-17" stroke="#FFFFFF" stroke-width="6" stroke-linecap="round" stroke-linejoin="round"></path>
                        <polyline id="Stroke-47" stroke="#FFFFFF" stroke-width="6" stroke-linecap="round" stroke-linejoin="round" points="106.0038 22.2748 106.0038 41.2748 59.0038 41.2748 59.0038 22.2748"></polyline>
                        <path d="M125.5061,24.3478 L123.0961,24.4868 L121.7211,0.7208 L124.1311,0.5808 C127.4391,0.3898 130.2761,2.9168 130.4671,6.2248 L131.1491,18.0108 C131.3411,21.3198 128.8141,24.1568 125.5061,24.3478" id="Fill-9" fill="#FFFFFF"></path>
                        <path d="M40.5619,29.2626 L38.1519,29.4016 C34.8439,29.5936 32.0069,27.0666 31.8159,23.7586 L31.1339,11.9716 C30.9419,8.6636 33.4689,5.8266 36.7769,5.6356 L39.1869,5.4956 L40.5619,29.2626 Z" id="Fill-11" fill="#FFFFFF"></path>
                        <path d="M168.0075,27.437 L180.3405,19.142" id="Stroke-60" stroke="#FFFFFF" stroke-width="6" stroke-linecap="round" stroke-linejoin="round"></path>
                        <path d="M174.0038,41.2748 L189.0038,41.2748" id="Stroke-61" stroke="#FFFFFF" stroke-width="6" stroke-linecap="round" stroke-linejoin="round"></path>
                        <path d="M170.3409,55.7355 L185.3409,62.7255" id="Stroke-62" stroke="#FFFFFF" stroke-width="6" stroke-linecap="round" stroke-linejoin="round"></path>
                        <path d="M8.2594,126.492 L5.7594,126.492 C2.5964,126.492 0.0094,123.905 0.0094,120.742 L0.0094,117.698 C0.0094,114.536 2.5964,111.948 5.7594,111.948 L8.2594,111.948 C11.4224,111.948 14.0094,114.536 14.0094,117.698 L14.0094,120.742 C14.0094,123.905 11.4224,126.492 8.2594,126.492" id="Fill-25" fill="#FFFFFF"></path>
                    </g>
                    <g id="Group-3" transform="translate(38.000000, 28.000000)">
                        <path d="M37.1895,38.1002 C29.0565,38.5712 22.0825,32.3592 21.6125,24.2272 C21.1415,16.0942 27.3525,9.1202 35.4855,8.6492" id="Fill-13" fill="#727272"></path>
                        <path d="M132.3521,16.3495 C131.8811,8.2165 138.0931,1.2425 146.2251,0.7725 C154.3581,0.3015 161.3321,6.5125 161.8031,14.6455" id="Fill-19" fill="#727272"></path>
                        <path d="M152.2453,54.1018 C151.8233,51.1458 149.2913,48.9508 146.3053,48.9508 L123.8633,48.9508 C122.4103,48.9508 121.0723,48.1628 120.3663,46.8928 L115.3113,31.4508 L50.5713,31.4508 L44.6693,45.9788 C43.9503,47.1998 42.6393,47.9508 41.2213,47.9508 L19.7233,47.9508 C16.7333,47.9508 14.1993,50.1528 13.7823,53.1138 L2.5093,114.9508 L161.5093,114.9508 L152.2453,54.1018 Z M107.0075,67.4752 C107.0075,81.2822 95.8145,92.4752 82.0075,92.4752 C68.2005,92.4752 57.0075,81.2822 57.0075,67.4752 C57.0075,53.6682 68.2005,42.4752 82.0075,42.4752 C95.8145,42.4752 107.0075,53.6682 107.0075,67.4752 Z M94.5075,67.4752 C94.5075,74.3792 88.9115,79.9752 82.0075,79.9752 C75.1035,79.9752 69.5075,74.3792 69.5075,67.4752 C69.5075,60.5712 75.1035,54.9752 82.0075,54.9752 C88.9115,54.9752 94.5075,60.5712 94.5075,67.4752 Z" id="Combined-Shape" fill="#FFFFFF"></path>
                        <g id="Fill-57">
                            <use fill="black" fill-opacity="1" filter="url(#filter-15)" xlink:href="#path-14"></use>
                            <use fill="#FFFFFF" fill-rule="evenodd" xlink:href="#path-14"></use>
                        </g>
                        <path d="M77.0094,6.4036 L87.0094,6.4036 C90.3234,6.4036 93.0094,9.0896 93.0094,12.4036 L93.0094,27.5976 L71.0094,27.5976 L71.0094,12.4036 C71.0094,9.0896 73.6954,6.4036 77.0094,6.4036" id="Fill-45" fill="#727272"></path>
                        <polygon id="Fill-51" fill="#727272" points="164.006 130 0.014 130 0.014 123.95 164.006 123.95"></polygon>
                        <g id="Fill-56">
                            <use fill="black" fill-opacity="1" filter="url(#filter-17)" xlink:href="#path-16"></use>
                            <use fill="#FFFFFF" fill-rule="evenodd" xlink:href="#path-16"></use>
                        </g>
                        <g id="Fill-55">
                            <use fill="black" fill-opacity="1" filter="url(#filter-19)" xlink:href="#path-18"></use>
                            <use fill="#FFFFFF" fill-rule="evenodd" xlink:href="#path-18"></use>
                        </g>
                        <g id="Fill-54">
                            <use fill="black" fill-opacity="1" filter="url(#filter-21)" xlink:href="#path-20"></use>
                            <use fill="#FFFFFF" fill-rule="evenodd" xlink:href="#path-20"></use>
                        </g>
                        <g id="Fill-39">
                            <use fill="black" fill-opacity="1" filter="url(#filter-23)" xlink:href="#path-22"></use>
                            <use fill="#FFFFFF" fill-rule="evenodd" xlink:href="#path-22"></use>
                        </g>
                        <g id="Fill-37">
                            <use fill="black" fill-opacity="1" filter="url(#filter-25)" xlink:href="#path-24"></use>
                            <use fill="#FFFFFF" fill-rule="evenodd" xlink:href="#path-24"></use>
                        </g>
                        <g id="Fill-35">
                            <use fill="black" fill-opacity="1" filter="url(#filter-27)" xlink:href="#path-26"></use>
                            <use fill="#FFFFFF" fill-rule="evenodd" xlink:href="#path-26"></use>
                        </g>
                        <g id="Fill-33">
                            <use fill="black" fill-opacity="1" filter="url(#filter-29)" xlink:href="#path-28"></use>
                            <use fill="#FFFFFF" fill-rule="evenodd" xlink:href="#path-28"></use>
                        </g>
                    </g>
                    <path d="M79.5046,38.2618 L81.0296,64.6158 C81.1426,66.5628 79.6546,68.2338 77.7066,68.3468 L77.7066,68.3468 C75.7586,68.4588 74.0886,66.9718 73.9756,65.0238 L72.4506,38.6698 C72.3376,36.7218 73.8256,35.0518 75.7736,34.9388 L75.7736,34.9388 C77.7216,34.8258 79.3916,36.3138 79.5046,38.2618" id="Fill-15" fill="#FFFFFF"></path>
                    <path d="M198.3238,48.1591 L171.6038,49.7051 C169.7848,49.8101 168.2258,48.4211 168.1198,46.6031 C168.0148,44.7841 169.4038,43.2241 171.2228,43.1191 L197.9428,41.5731 C199.7618,41.4681 201.3208,42.8571 201.4258,44.6761 L201.4258,44.6761 C201.5318,46.4941 200.1428,48.0541 198.3238,48.1591" id="Fill-21" fill="#FFFFFF"></path>
                    <path d="M122,100 L129.5892,117.9282" id="Stroke-58" stroke="#FF4081" stroke-width="4" stroke-linecap="round" stroke-linejoin="round"></path>
                    <path d="M128.1657,95.4752 C128.1657,99.9812 124.5127,103.6332 120.0077,103.6332 C115.5017,103.6332 111.8497,99.9812 111.8497,95.4752 C111.8497,90.9692 115.5017,87.3172 120.0077,87.3172 C124.5127,87.3172 128.1657,90.9692 128.1657,95.4752" id="Fill-59" fill="#FF4081"></path>
                </g>
            </g>
        </g>
    </g>
</svg>