<?xml version="1.0" encoding="UTF-8" standalone="no"?>
<svg width="277px" height="211px" viewBox="0 0 277 211" version="1.1" xmlns="http://www.w3.org/2000/svg" xmlns:xlink="http://www.w3.org/1999/xlink">
    <!-- Generator: Sketch 3.7.2 (28276) - http://www.bohemiancoding.com/sketch -->
    <title>contact</title>
    <desc>Created with Sketch.</desc>
    <defs>
        <path d="M170.328167,52.2961915 C170.414701,45.4131275 175.268699,39.5542852 181.881659,38.0957794 C181.771453,37.7018107 181.701065,37.280083 181.678004,36.8400454 L180.973491,23.397149 L172.095486,24.0179596 C170.127845,24.1555504 168.439064,22.9272159 168.323488,21.2743977 C168.207911,19.6215795 169.709306,18.1701661 171.676947,18.0325753 L180.659428,17.404459 L180.576103,15.8145364 C180.454391,13.4921228 181.697028,11.5391398 183.351612,11.4524267 C185.006196,11.3657137 186.446168,13.1781071 186.567881,15.5005207 L186.645724,16.9858564 L189.490591,16.786924 C191.458232,16.6493331 193.147013,17.8776676 193.262589,19.5304858 C193.378165,21.1833041 191.87677,22.6347174 189.90913,22.7723083 L186.959787,22.9785464 L187.669781,36.5260297 C187.695919,37.02478 187.659134,37.5064923 187.568859,37.9563411 C193.981053,39.048833 199.069636,44.3093427 199.75084,50.9911031 C200.695989,51.5241278 201.358607,52.5120695 201.4258,53.6761 C201.5318,55.4941 200.1428,57.0541 198.3238,57.1591 L171.6038,58.7051 C169.7848,58.8101 168.2258,57.4211 168.1198,55.6031 C168.032852,54.0968224 168.970364,52.7681454 170.328167,52.2961915 Z M72.9213774,45.6925331 C66.1688686,46.3395746 60.8497771,51.4848305 59.7829017,57.963666 L54.3063284,58.2103524 L53.1348191,57.2189133 C52.9516361,57.0638871 52.4479926,57.1144103 51.7896858,57.3206802 C52.4239732,56.2405463 52.781222,54.6078049 52.6865851,52.8020247 L52.2248549,43.9916883 L56.7228479,43.5569452 C58.372017,43.3975485 59.5797162,41.9314163 59.4203195,40.2822472 C59.2609229,38.6330781 57.7947907,37.4253789 56.1456216,37.5847756 L51.910535,37.9941081 L51.5438124,30.9966235 L66.0894064,30.1549906 C67.1789496,30.0919478 68.0989439,29.4549735 68.5726656,28.5547817 L68.8159,32.7586 C69.0069,36.0666 71.8439,38.5936 75.1519,38.4016 L77.5619,38.2626 L77.4618471,36.5331762 L92.7478863,35.69705 L92.4392075,50.8892204 C92.410138,52.3199295 93.7282103,53.5298789 95.3832045,53.591718 C96.325006,53.6269086 97.1729627,53.2827157 97.7342498,52.7158747 C98.5506133,53.1577745 99.5915268,53.4225823 100.71315,53.4189706 L108.973022,53.3923734 L108.973022,64.7646479 L130.973022,64.7646479 L130.973022,53.3215322 L141.639137,53.2871867 C142.097459,53.2857109 142.537585,53.239518 142.950359,53.1549003 C143.412174,53.3367496 143.935123,53.4188319 144.479215,53.3725681 C146.129409,53.2322532 147.3492,51.9644598 147.203693,50.5408723 L145.392162,32.8174776 L160.011112,32.0178403 L160.0961,33.4868 L162.5061,33.3478 C165.8141,33.1568 168.3411,30.3198 168.1491,27.0108 L167.4671,15.2248 C167.2761,11.9168 164.4391,9.3898 161.1311,9.5808 L158.7211,9.7208 L158.83705,11.724922 L140.45523,13.0103041 L76.3116481,16.6518817 L76.1869,14.4956 L73.7769,14.6356 C70.4689,14.8266 67.9419,17.6636 68.1339,20.9716 L68.394071,25.4681334 C67.8196858,24.6285831 66.8323619,24.1019664 65.7428158,24.1650094 L51.229792,25.0047578 L51.1933962,24.310284 C51.0284631,21.1631732 49.5534534,18.6822307 47.8988698,18.7689437 C46.2442862,18.8556568 45.0366859,21.4771889 45.201619,24.6242997 L45.2397223,25.3513534 L31.7998158,26.1290094 C30.1457282,26.2247177 28.8824121,27.6432076 28.9781205,29.2972953 C29.0738288,30.9513829 30.4923187,32.2146989 32.1464064,32.1189906 L45.5537427,31.3432192 L45.9325814,38.5718934 L39.6846216,39.1757756 C38.0354525,39.3351722 36.8277533,40.8013044 36.9871499,42.4504735 C37.1465466,44.0996426 38.6126788,45.3073418 40.2618479,45.1479452 L46.2469013,44.5694736 L46.6948079,53.1160404 C46.8343547,55.7787536 47.9117258,57.9645873 49.2422078,58.521865 C47.9751666,59.3060708 47.2334271,60.0918961 47.548851,60.3588369 L51.0630616,63.3328856 C51.2313748,63.4753277 51.670234,63.4442366 52.2510284,63.2782447 C52.640866,63.8778363 53.2184308,64.2407127 53.8690712,64.2114052 L60.0208447,63.9343052 C61.6169661,70.386977 67.4269528,75.07724 74.2187209,75.1249414 C74.7655548,76.5011747 76.1469778,77.4364703 77.7066,77.3468 C79.6546,77.2338 81.1426,75.5628 81.0296,73.6158 L79.5046,47.2618 C79.3916,45.3138 77.7216,43.8258 75.7736,43.9388 C74.5438535,44.0101354 73.4974275,44.701971 72.9213774,45.6925331 Z M98.7523738,35.3686125 L98.5018801,47.6970963 C99.0730609,47.5176597 99.7146669,47.4164825 100.396552,47.4142868 L109.383325,47.3853489 C110.256927,45.152149 112.430093,43.5706479 114.973022,43.5706479 L124.973022,43.5706479 C127.490021,43.5706479 129.64476,45.1200603 130.53559,47.3172374 L140.84299,47.284047 L139.397857,33.1453582 L98.7523738,35.3686125 Z M43.5097698,135.492 L42.7594,135.492 C39.5964,135.492 37.0094,132.905 37.0094,129.742 L37.0094,126.698 C37.0094,123.536 39.5964,120.948 42.7594,120.948 L45.2594,120.948 C45.5616323,120.948 45.8586056,120.971629 46.1485655,121.01713 L51.7823,90.1138 C52.1993,87.1528 54.7333,84.9508 57.7233,84.9508 L79.2213,84.9508 C80.6393,84.9508 81.9503,84.1998 82.6693,82.9788 L88.5713,68.4508 L153.3113,68.4508 L158.3663,83.8928 C159.0723,85.1628 160.4103,85.9508 161.8633,85.9508 L184.3053,85.9508 C187.2913,85.9508 189.8233,88.1458 190.2453,91.1018 L199.5093,151.9508 L40.5093,151.9508 L43.5097698,135.492 Z M145.0075,104.4752 C145.0075,118.2822 133.8145,129.4752 120.0075,129.4752 C106.2005,129.4752 95.0075,118.2822 95.0075,104.4752 C95.0075,90.6682 106.2005,79.4752 120.0075,79.4752 C133.8145,79.4752 145.0075,90.6682 145.0075,104.4752 Z M132.5075,104.4752 C132.5075,111.3792 126.9115,116.9752 120.0075,116.9752 C113.1035,116.9752 107.5075,111.3792 107.5075,104.4752 C107.5075,97.5712 113.1035,91.9752 120.0075,91.9752 C126.9115,91.9752 132.5075,97.5712 132.5075,104.4752 Z M135.4927,120.4604 C134.1417,121.8114 131.9527,121.8114 130.6017,120.4604 C129.2517,119.1094 129.2517,116.9204 130.6017,115.5694 C131.9527,114.2194 134.1417,114.2194 135.4927,115.5694 C136.8437,116.9204 136.8437,119.1094 135.4927,120.4604 Z M202.006,167 L38.014,167 L38.014,160.95 L202.006,160.95 L202.006,167 Z M109.3298,94.2975 C107.9788,95.6485 105.7898,95.6485 104.4388,94.2975 C103.0888,92.9465 103.0888,90.7575 104.4388,89.4065 C105.7898,88.0565 107.9788,88.0565 109.3298,89.4065 C110.6808,90.7575 110.6808,92.9465 109.3298,94.2975 Z M109.8298,119.9604 C108.4788,121.3114 106.2898,121.3114 104.9388,119.9604 C103.5888,118.6094 103.5888,116.4204 104.9388,115.0694 C106.2898,113.7194 108.4788,113.7194 109.8298,115.0694 C111.1808,116.4204 111.1808,118.6094 109.8298,119.9604 Z M135.9927,93.7975 C134.6417,95.1485 132.4527,95.1485 131.1017,93.7975 C129.7517,92.4465 129.7517,90.2575 131.1017,88.9065 C132.4527,87.5565 134.6417,87.5565 135.9927,88.9065 C137.3437,90.2575 137.3437,92.4465 135.9927,93.7975 Z M141.9242,104.9335 C141.9242,106.8435 140.3762,108.3915 138.4662,108.3915 C136.5562,108.3915 135.0072,106.8435 135.0072,104.9335 C135.0072,103.0235 136.5562,101.4755 138.4662,101.4755 C140.3762,101.4755 141.9242,103.0235 141.9242,104.9335 Z M104.9242,104.9335 C104.9242,106.8435 103.3762,108.3915 101.4662,108.3915 C99.5562,108.3915 98.0072,106.8435 98.0072,104.9335 C98.0072,103.0235 99.5562,101.4755 101.4662,101.4755 C103.3762,101.4755 104.9242,103.0235 104.9242,104.9335 Z M123.9242,122.9335 C123.9242,124.8435 122.3762,126.3915 120.4662,126.3915 C118.5562,126.3915 117.0072,124.8435 117.0072,122.9335 C117.0072,121.0235 118.5562,119.4755 120.4662,119.4755 C122.3762,119.4755 123.9242,121.0235 123.9242,122.9335 Z M123.9242,85.9335 C123.9242,87.8435 122.3762,89.3915 120.4662,89.3915 C118.5562,89.3915 117.0072,87.8435 117.0072,85.9335 C117.0072,84.0235 118.5562,82.4755 120.4662,82.4755 C122.3762,82.4755 123.9242,84.0235 123.9242,85.9335 Z" id="path-1"></path>
        <filter x="-50%" y="-50%" width="200%" height="200%" filterUnits="objectBoundingBox" id="filter-2">
            <feOffset dx="0" dy="20" in="SourceAlpha" result="shadowOffsetOuter1"></feOffset>
            <feGaussianBlur stdDeviation="12" in="shadowOffsetOuter1" result="shadowBlurOuter1"></feGaussianBlur>
            <feColorMatrix values="0 0 0 0 0   0 0 0 0 0   0 0 0 0 0  0 0 0 0.15 0" type="matrix" in="shadowBlurOuter1" result="shadowMatrixOuter1"></feColorMatrix>
            <feOffset dx="0" dy="0" in="SourceAlpha" result="shadowOffsetOuter2"></feOffset>
            <feGaussianBlur stdDeviation="2" in="shadowOffsetOuter2" result="shadowBlurOuter2"></feGaussianBlur>
            <feColorMatrix values="0 0 0 0 0   0 0 0 0 0   0 0 0 0 0  0 0 0 0.122877038 0" type="matrix" in="shadowBlurOuter2" result="shadowMatrixOuter2"></feColorMatrix>
            <feMerge>
                <feMergeNode in="shadowMatrixOuter1"></feMergeNode>
                <feMergeNode in="shadowMatrixOuter2"></feMergeNode>
            </feMerge>
        </filter>
        <path d="M205.0075,8.437 L217.3405,0.142" id="path-3"></path>
        <filter x="-50%" y="-50%" width="200%" height="200%" filterUnits="objectBoundingBox" id="filter-4">
            <feMorphology radius="3" operator="dilate" in="SourceAlpha" result="shadowSpreadOuter1"></feMorphology>
            <feOffset dx="0" dy="20" in="shadowSpreadOuter1" result="shadowOffsetOuter1"></feOffset>
            <feMorphology radius="3" operator="erode" in="SourceAlpha" result="shadowInner"></feMorphology>
            <feOffset dx="0" dy="20" in="shadowInner" result="shadowInner"></feOffset>
            <feComposite in="shadowOffsetOuter1" in2="shadowInner" operator="out" result="shadowOffsetOuter1"></feComposite>
            <feGaussianBlur stdDeviation="12" in="shadowOffsetOuter1" result="shadowBlurOuter1"></feGaussianBlur>
            <feColorMatrix values="0 0 0 0 0   0 0 0 0 0   0 0 0 0 0  0 0 0 0.15 0" type="matrix" in="shadowBlurOuter1" result="shadowMatrixOuter1"></feColorMatrix>
            <feMorphology radius="3" operator="dilate" in="SourceAlpha" result="shadowSpreadOuter2"></feMorphology>
            <feOffset dx="0" dy="0" in="shadowSpreadOuter2" result="shadowOffsetOuter2"></feOffset>
            <feMorphology radius="3" operator="erode" in="SourceAlpha" result="shadowInner"></feMorphology>
            <feOffset dx="0" dy="0" in="shadowInner" result="shadowInner"></feOffset>
            <feComposite in="shadowOffsetOuter2" in2="shadowInner" operator="out" result="shadowOffsetOuter2"></feComposite>
            <feGaussianBlur stdDeviation="2" in="shadowOffsetOuter2" result="shadowBlurOuter2"></feGaussianBlur>
            <feColorMatrix values="0 0 0 0 0   0 0 0 0 0   0 0 0 0 0  0 0 0 0.122877038 0" type="matrix" in="shadowBlurOuter2" result="shadowMatrixOuter2"></feColorMatrix>
            <feMerge>
                <feMergeNode in="shadowMatrixOuter1"></feMergeNode>
                <feMergeNode in="shadowMatrixOuter2"></feMergeNode>
            </feMerge>
        </filter>
        <path d="M211.0038,22.2748 L226.0038,22.2748" id="path-5"></path>
        <filter x="-50%" y="-50%" width="200%" height="200%" filterUnits="objectBoundingBox" id="filter-6">
            <feMorphology radius="3" operator="dilate" in="SourceAlpha" result="shadowSpreadOuter1"></feMorphology>
            <feOffset dx="0" dy="20" in="shadowSpreadOuter1" result="shadowOffsetOuter1"></feOffset>
            <feMorphology radius="3" operator="erode" in="SourceAlpha" result="shadowInner"></feMorphology>
            <feOffset dx="0" dy="20" in="shadowInner" result="shadowInner"></feOffset>
            <feComposite in="shadowOffsetOuter1" in2="shadowInner" operator="out" result="shadowOffsetOuter1"></feComposite>
            <feGaussianBlur stdDeviation="12" in="shadowOffsetOuter1" result="shadowBlurOuter1"></feGaussianBlur>
            <feColorMatrix values="0 0 0 0 0   0 0 0 0 0   0 0 0 0 0  0 0 0 0.15 0" type="matrix" in="shadowBlurOuter1" result="shadowMatrixOuter1"></feColorMatrix>
            <feMorphology radius="3" operator="dilate" in="SourceAlpha" result="shadowSpreadOuter2"></feMorphology>
            <feOffset dx="0" dy="0" in="shadowSpreadOuter2" result="shadowOffsetOuter2"></feOffset>
            <feMorphology radius="3" operator="erode" in="SourceAlpha" result="shadowInner"></feMorphology>
            <feOffset dx="0" dy="0" in="shadowInner" result="shadowInner"></feOffset>
            <feComposite in="shadowOffsetOuter2" in2="shadowInner" operator="out" result="shadowOffsetOuter2"></feComposite>
            <feGaussianBlur stdDeviation="2" in="shadowOffsetOuter2" result="shadowBlurOuter2"></feGaussianBlur>
            <feColorMatrix values="0 0 0 0 0   0 0 0 0 0   0 0 0 0 0  0 0 0 0.122877038 0" type="matrix" in="shadowBlurOuter2" result="shadowMatrixOuter2"></feColorMatrix>
            <feMerge>
                <feMergeNode in="shadowMatrixOuter1"></feMergeNode>
                <feMergeNode in="shadowMatrixOuter2"></feMergeNode>
            </feMerge>
        </filter>
        <path d="M207.3409,36.7355 L222.3409,43.7255" id="path-7"></path>
        <filter x="-50%" y="-50%" width="200%" height="200%" filterUnits="objectBoundingBox" id="filter-8">
            <feMorphology radius="3" operator="dilate" in="SourceAlpha" result="shadowSpreadOuter1"></feMorphology>
            <feOffset dx="0" dy="20" in="shadowSpreadOuter1" result="shadowOffsetOuter1"></feOffset>
            <feMorphology radius="3" operator="erode" in="SourceAlpha" result="shadowInner"></feMorphology>
            <feOffset dx="0" dy="20" in="shadowInner" result="shadowInner"></feOffset>
            <feComposite in="shadowOffsetOuter1" in2="shadowInner" operator="out" result="shadowOffsetOuter1"></feComposite>
            <feGaussianBlur stdDeviation="12" in="shadowOffsetOuter1" result="shadowBlurOuter1"></feGaussianBlur>
            <feColorMatrix values="0 0 0 0 0   0 0 0 0 0   0 0 0 0 0  0 0 0 0.15 0" type="matrix" in="shadowBlurOuter1" result="shadowMatrixOuter1"></feColorMatrix>
            <feMorphology radius="3" operator="dilate" in="SourceAlpha" result="shadowSpreadOuter2"></feMorphology>
            <feOffset dx="0" dy="0" in="shadowSpreadOuter2" result="shadowOffsetOuter2"></feOffset>
            <feMorphology radius="3" operator="erode" in="SourceAlpha" result="shadowInner"></feMorphology>
            <feOffset dx="0" dy="0" in="shadowInner" result="shadowInner"></feOffset>
            <feComposite in="shadowOffsetOuter2" in2="shadowInner" operator="out" result="shadowOffsetOuter2"></feComposite>
            <feGaussianBlur stdDeviation="2" in="shadowOffsetOuter2" result="shadowBlurOuter2"></feGaussianBlur>
            <feColorMatrix values="0 0 0 0 0   0 0 0 0 0   0 0 0 0 0  0 0 0 0.122877038 0" type="matrix" in="shadowBlurOuter2" result="shadowMatrixOuter2"></feColorMatrix>
            <feMerge>
                <feMergeNode in="shadowMatrixOuter1"></feMergeNode>
                <feMergeNode in="shadowMatrixOuter2"></feMergeNode>
            </feMerge>
        </filter>
        <path d="M39.9971,0.1338 C18.0321,-0.0072 10.4441,13.0828 9.2971,23.9548 C8.1341,34.9778 22.1581,54.2118 19.0071,69.0608 C16.2561,82.0318 -9.3589,95.8078 3.6741,108.0628 C17.0071,120.5988 28.0071,98.3918 41.1381,99.8578" id="path-9"></path>
        <filter x="-50%" y="-50%" width="200%" height="200%" filterUnits="objectBoundingBox" id="filter-10">
            <feMorphology radius="3" operator="dilate" in="SourceAlpha" result="shadowSpreadOuter1"></feMorphology>
            <feOffset dx="0" dy="0" in="shadowSpreadOuter1" result="shadowOffsetOuter1"></feOffset>
            <feMorphology radius="3" operator="erode" in="SourceAlpha" result="shadowInner"></feMorphology>
            <feOffset dx="0" dy="0" in="shadowInner" result="shadowInner"></feOffset>
            <feComposite in="shadowOffsetOuter1" in2="shadowInner" operator="out" result="shadowOffsetOuter1"></feComposite>
            <feGaussianBlur stdDeviation="12" in="shadowOffsetOuter1" result="shadowBlurOuter1"></feGaussianBlur>
            <feColorMatrix values="0 0 0 0 0   0 0 0 0 0   0 0 0 0 0  0 0 0 0.195340806 0" type="matrix" in="shadowBlurOuter1"></feColorMatrix>
        </filter>
        <path d="M209.059775,75.0504157 C208.348327,75.7202963 207.536718,76.1361653 206.666417,76.2201255 L193.034258,77.5383367 L193.037369,77.6471876 L194.060066,77.6471876 C198.074646,77.6471876 201.478837,80.9846789 202.046202,85.4792685 L214.501348,178 L121,178 L121,189.000099 C121,190.105928 121.89749,191 123.0046,191 L244.9954,191 C246.110889,191 247,190.104614 247,189.000099 L247,1.99990126 C247,0.894071804 246.10251,0 244.9954,0 L123.0046,0 C121.889111,0 121,0.895386292 121,1.99990126 L121,8.9950356 L156.906932,7.111033 L156.696688,3.90901929 L160.691675,3.7045292 C166.175249,3.42554629 170.878061,7.11659241 171.194676,11.9484011 L171.357208,14.4233498 L177.416918,13.9980746 L177.253065,11.6633469 C177.011409,8.22001012 179.606884,5.23273312 183.050221,4.99107702 C186.493558,4.74942092 189.480835,7.34489597 189.722491,10.7882328 L189.886344,13.1229604 L193.936512,12.8387164 C197.379849,12.5970603 200.367126,15.1925354 200.608782,18.6358722 C200.850438,22.079209 198.254963,25.066486 194.811626,25.3081421 L190.761458,25.5923861 L191.055507,29.7822686 C192.525229,30.0779394 193.958504,30.4989481 195.345495,31.035519 L215.174622,18.2345893 C219.348339,15.5401967 225.007475,16.6034816 227.814658,20.6095024 C230.62184,24.6155233 229.514045,30.0472816 225.340328,32.7416741 L211.390679,41.7470371 L232.055909,41.0253914 C237.145776,40.8476493 241.410228,44.6639288 241.580829,49.5492901 C241.751429,54.4346515 237.763576,58.5391078 232.673709,58.7168499 L216.897376,59.2677716 L231.749199,65.9106446 C236.3084,67.9498683 238.282044,73.1504481 236.157456,77.5264646 C234.032869,81.9024812 228.614588,83.7968261 224.055388,81.7576024 L209.059775,75.0504157 Z" id="path-11"></path>
        <path d="M97.4927,83.4604 C96.1417,84.8114 93.9527,84.8114 92.6017,83.4604 C91.2517,82.1094 91.2517,79.9204 92.6017,78.5694 C93.9527,77.2194 96.1417,77.2194 97.4927,78.5694 C98.8437,79.9204 98.8437,82.1094 97.4927,83.4604" id="path-13"></path>
        <filter x="-50%" y="-50%" width="200%" height="200%" filterUnits="objectBoundingBox" id="filter-14">
            <feOffset dx="0" dy="0" in="SourceAlpha" result="shadowOffsetOuter1"></feOffset>
            <feGaussianBlur stdDeviation="3.5" in="shadowOffsetOuter1" result="shadowBlurOuter1"></feGaussianBlur>
            <feColorMatrix values="0 0 0 0 0   0 0 0 0 0   0 0 0 0 0  0 0 0 0.199162138 0" type="matrix" in="shadowBlurOuter1"></feColorMatrix>
        </filter>
        <path d="M71.3298,57.2975 C69.9788,58.6485 67.7898,58.6485 66.4388,57.2975 C65.0888,55.9465 65.0888,53.7575 66.4388,52.4065 C67.7898,51.0565 69.9788,51.0565 71.3298,52.4065 C72.6808,53.7575 72.6808,55.9465 71.3298,57.2975" id="path-15"></path>
        <filter x="-50%" y="-50%" width="200%" height="200%" filterUnits="objectBoundingBox" id="filter-16">
            <feOffset dx="0" dy="0" in="SourceAlpha" result="shadowOffsetOuter1"></feOffset>
            <feGaussianBlur stdDeviation="3.5" in="shadowOffsetOuter1" result="shadowBlurOuter1"></feGaussianBlur>
            <feColorMatrix values="0 0 0 0 0   0 0 0 0 0   0 0 0 0 0  0 0 0 0.199162138 0" type="matrix" in="shadowBlurOuter1"></feColorMatrix>
        </filter>
        <path d="M71.8298,82.9604 C70.4788,84.3114 68.2898,84.3114 66.9388,82.9604 C65.5888,81.6094 65.5888,79.4204 66.9388,78.0694 C68.2898,76.7194 70.4788,76.7194 71.8298,78.0694 C73.1808,79.4204 73.1808,81.6094 71.8298,82.9604" id="path-17"></path>
        <filter x="-50%" y="-50%" width="200%" height="200%" filterUnits="objectBoundingBox" id="filter-18">
            <feOffset dx="0" dy="0" in="SourceAlpha" result="shadowOffsetOuter1"></feOffset>
            <feGaussianBlur stdDeviation="3.5" in="shadowOffsetOuter1" result="shadowBlurOuter1"></feGaussianBlur>
            <feColorMatrix values="0 0 0 0 0   0 0 0 0 0   0 0 0 0 0  0 0 0 0.199162138 0" type="matrix" in="shadowBlurOuter1"></feColorMatrix>
        </filter>
        <path d="M97.9927,56.7975 C96.6417,58.1485 94.4527,58.1485 93.1017,56.7975 C91.7517,55.4465 91.7517,53.2575 93.1017,51.9065 C94.4527,50.5565 96.6417,50.5565 97.9927,51.9065 C99.3437,53.2575 99.3437,55.4465 97.9927,56.7975" id="path-19"></path>
        <filter x="-50%" y="-50%" width="200%" height="200%" filterUnits="objectBoundingBox" id="filter-20">
            <feOffset dx="0" dy="0" in="SourceAlpha" result="shadowOffsetOuter1"></feOffset>
            <feGaussianBlur stdDeviation="3.5" in="shadowOffsetOuter1" result="shadowBlurOuter1"></feGaussianBlur>
            <feColorMatrix values="0 0 0 0 0   0 0 0 0 0   0 0 0 0 0  0 0 0 0.199162138 0" type="matrix" in="shadowBlurOuter1"></feColorMatrix>
        </filter>
        <path d="M103.9242,67.9335 C103.9242,69.8435 102.3762,71.3915 100.4662,71.3915 C98.5562,71.3915 97.0072,69.8435 97.0072,67.9335 C97.0072,66.0235 98.5562,64.4755 100.4662,64.4755 C102.3762,64.4755 103.9242,66.0235 103.9242,67.9335" id="path-21"></path>
        <filter x="-50%" y="-50%" width="200%" height="200%" filterUnits="objectBoundingBox" id="filter-22">
            <feOffset dx="0" dy="0" in="SourceAlpha" result="shadowOffsetOuter1"></feOffset>
            <feGaussianBlur stdDeviation="3.5" in="shadowOffsetOuter1" result="shadowBlurOuter1"></feGaussianBlur>
            <feColorMatrix values="0 0 0 0 0   0 0 0 0 0   0 0 0 0 0  0 0 0 0.199162138 0" type="matrix" in="shadowBlurOuter1"></feColorMatrix>
        </filter>
        <path d="M66.9242,67.9335 C66.9242,69.8435 65.3762,71.3915 63.4662,71.3915 C61.5562,71.3915 60.0072,69.8435 60.0072,67.9335 C60.0072,66.0235 61.5562,64.4755 63.4662,64.4755 C65.3762,64.4755 66.9242,66.0235 66.9242,67.9335" id="path-23"></path>
        <filter x="-50%" y="-50%" width="200%" height="200%" filterUnits="objectBoundingBox" id="filter-24">
            <feOffset dx="0" dy="0" in="SourceAlpha" result="shadowOffsetOuter1"></feOffset>
            <feGaussianBlur stdDeviation="3.5" in="shadowOffsetOuter1" result="shadowBlurOuter1"></feGaussianBlur>
            <feColorMatrix values="0 0 0 0 0   0 0 0 0 0   0 0 0 0 0  0 0 0 0.199162138 0" type="matrix" in="shadowBlurOuter1"></feColorMatrix>
        </filter>
        <path d="M85.9242,85.9335 C85.9242,87.8435 84.3762,89.3915 82.4662,89.3915 C80.5562,89.3915 79.0072,87.8435 79.0072,85.9335 C79.0072,84.0235 80.5562,82.4755 82.4662,82.4755 C84.3762,82.4755 85.9242,84.0235 85.9242,85.9335" id="path-25"></path>
        <filter x="-50%" y="-50%" width="200%" height="200%" filterUnits="objectBoundingBox" id="filter-26">
            <feOffset dx="0" dy="0" in="SourceAlpha" result="shadowOffsetOuter1"></feOffset>
            <feGaussianBlur stdDeviation="3.5" in="shadowOffsetOuter1" result="shadowBlurOuter1"></feGaussianBlur>
            <feColorMatrix values="0 0 0 0 0   0 0 0 0 0   0 0 0 0 0  0 0 0 0.199162138 0" type="matrix" in="shadowBlurOuter1"></feColorMatrix>
        </filter>
        <path d="M85.9242,48.9335 C85.9242,50.8435 84.3762,52.3915 82.4662,52.3915 C80.5562,52.3915 79.0072,50.8435 79.0072,48.9335 C79.0072,47.0235 80.5562,45.4755 82.4662,45.4755 C84.3762,45.4755 85.9242,47.0235 85.9242,48.9335" id="path-27"></path>
        <filter x="-50%" y="-50%" width="200%" height="200%" filterUnits="objectBoundingBox" id="filter-28">
            <feOffset dx="0" dy="0" in="SourceAlpha" result="shadowOffsetOuter1"></feOffset>
            <feGaussianBlur stdDeviation="3.5" in="shadowOffsetOuter1" result="shadowBlurOuter1"></feGaussianBlur>
            <feColorMatrix values="0 0 0 0 0   0 0 0 0 0   0 0 0 0 0  0 0 0 0.199162138 0" type="matrix" in="shadowBlurOuter1"></feColorMatrix>
        </filter>
    </defs>
    <g id="Creative-ART" stroke="none" stroke-width="1" fill="none" fill-rule="evenodd">
        <g id="Contact" transform="translate(-17.000000, -171.000000)">
            <g id="contact" transform="translate(43.000000, 171.000000)">
                <g id="shadow" fill-opacity="1" fill="black">
                    <use filter="url(#filter-2)" xlink:href="#path-1"></use>
                </g>
                <g id="strok-shadow" transform="translate(0.000000, 28.000000)">
                    <g id="Stroke-60-Copy-3">
                        <use fill="black" fill-opacity="1" filter="url(#filter-4)" xlink:href="#path-3"></use>
                        <use stroke="#D3D2D2" stroke-width="6" stroke-linecap="round" stroke-linejoin="round" xlink:href="#path-3"></use>
                    </g>
                    <g id="Stroke-61-Copy-3">
                        <use fill="black" fill-opacity="1" filter="url(#filter-6)" xlink:href="#path-5"></use>
                        <use stroke="#D3D2D2" stroke-width="6" stroke-linecap="round" stroke-linejoin="round" xlink:href="#path-5"></use>
                    </g>
                    <g id="Stroke-62-Copy-3">
                        <use fill="black" fill-opacity="1" filter="url(#filter-8)" xlink:href="#path-7"></use>
                        <use stroke="#D3D2D2" stroke-width="6" stroke-linecap="round" stroke-linejoin="round" xlink:href="#path-7"></use>
                    </g>
                    <g id="Stroke-23-Copy">
                        <use fill="black" fill-opacity="1" filter="url(#filter-10)" xlink:href="#path-9"></use>
                        <use stroke="#D3D2D2" stroke-width="6" stroke-linecap="round" stroke-linejoin="round" xlink:href="#path-9"></use>
                    </g>
                </g>
                <mask id="mask-12" fill="white">
                    <use xlink:href="#path-11"></use>
                </mask>
                <use id="white--paper" fill="#FFFFFF" xlink:href="#path-11"></use>
                <g id="telephone" transform="translate(0.000000, 9.000000)">
                    <polygon id="Fill-6" fill="#727272" points="161.390625 22.9423828 75.4082031 27.6455078 74.3769531 7.76171875 160.211917 2.88867188"></polygon>
                    <g id="Group-2" transform="translate(0.000000, 13.000000)" stroke="#FFFFFF" stroke-width="6" stroke-linecap="round" stroke-linejoin="round">
                        <path d="M73.9403,4.1699 L39.9973,6.1339" id="Stroke-1"></path>
                        <path d="M47.6702,0.1946 L49.6032,33.6006 C49.7942,36.9086 52.6312,39.4346 55.9392,39.2436 L62.9282,38.8396" id="Stroke-4"></path>
                        <path d="M39.9971,6.1338 C18.0321,5.9928 10.4441,19.0828 9.2971,29.9548 C8.1341,40.9778 22.1581,60.2118 19.0071,75.0608 C16.2561,88.0318 -9.3589,101.8078 3.6741,114.0628 C17.0071,126.5988 28.0071,104.3918 41.1381,105.8578" id="Stroke-23"></path>
                        <path d="M40.5075,20.5483 L56.9685,18.9573" id="Stroke-63"></path>
                    </g>
                    <g id="Group" transform="translate(37.000000, 0.000000)">
                        <path d="M125.7917,12.029 L152.7467,10.469" id="Stroke-2" stroke="#FFFFFF" stroke-width="6" stroke-linecap="round" stroke-linejoin="round"></path>
                        <path d="M147.7964,28.7859 L146.4674,5.8239" id="Stroke-17" stroke="#FFFFFF" stroke-width="6" stroke-linecap="round" stroke-linejoin="round"></path>
                        <polyline id="Stroke-47" stroke="#FFFFFF" stroke-width="6" stroke-linecap="round" stroke-linejoin="round" points="106.0038 22.2748 106.0038 41.2748 59.0038 41.2748 59.0038 22.2748"></polyline>
                        <path d="M125.5061,24.3478 L123.0961,24.4868 L121.7211,0.7208 L124.1311,0.5808 C127.4391,0.3898 130.2761,2.9168 130.4671,6.2248 L131.1491,18.0108 C131.3411,21.3198 128.8141,24.1568 125.5061,24.3478" id="Fill-9" fill="#FFFFFF"></path>
                        <path d="M40.5619,29.2626 L38.1519,29.4016 C34.8439,29.5936 32.0069,27.0666 31.8159,23.7586 L31.1339,11.9716 C30.9419,8.6636 33.4689,5.8266 36.7769,5.6356 L39.1869,5.4956 L40.5619,29.2626 Z" id="Fill-11" fill="#FFFFFF"></path>
                        <path d="M168.0075,27.437 L180.3405,19.142" id="Stroke-60" stroke="#FFFFFF" stroke-width="6" stroke-linecap="round" stroke-linejoin="round"></path>
                        <path d="M174.0038,41.2748 L189.0038,41.2748" id="Stroke-61" stroke="#FFFFFF" stroke-width="6" stroke-linecap="round" stroke-linejoin="round"></path>
                        <path d="M170.3409,55.7355 L185.3409,62.7255" id="Stroke-62" stroke="#FFFFFF" stroke-width="6" stroke-linecap="round" stroke-linejoin="round"></path>
                        <path d="M8.2594,126.492 L5.7594,126.492 C2.5964,126.492 0.0094,123.905 0.0094,120.742 L0.0094,117.698 C0.0094,114.536 2.5964,111.948 5.7594,111.948 L8.2594,111.948 C11.4224,111.948 14.0094,114.536 14.0094,117.698 L14.0094,120.742 C14.0094,123.905 11.4224,126.492 8.2594,126.492" id="Fill-25" fill="#FFFFFF"></path>
                    </g>
                    <g id="Group-3" transform="translate(38.000000, 28.000000)">
                        <path d="M37.1895,38.1002 C29.0565,38.5712 22.0825,32.3592 21.6125,24.2272 C21.1415,16.0942 27.3525,9.1202 35.4855,8.6492" id="Fill-13" fill="#727272"></path>
                        <path d="M132.3521,16.3495 C131.8811,8.2165 138.0931,1.2425 146.2251,0.7725 C154.3581,0.3015 161.3321,6.5125 161.8031,14.6455" id="Fill-19" fill="#727272"></path>
                        <path d="M152.2453,54.1018 C151.8233,51.1458 149.2913,48.9508 146.3053,48.9508 L123.8633,48.9508 C122.4103,48.9508 121.0723,48.1628 120.3663,46.8928 L115.3113,31.4508 L50.5713,31.4508 L44.6693,45.9788 C43.9503,47.1998 42.6393,47.9508 41.2213,47.9508 L19.7233,47.9508 C16.7333,47.9508 14.1993,50.1528 13.7823,53.1138 L2.5093,114.9508 L161.5093,114.9508 L152.2453,54.1018 Z M107.0075,67.4752 C107.0075,81.2822 95.8145,92.4752 82.0075,92.4752 C68.2005,92.4752 57.0075,81.2822 57.0075,67.4752 C57.0075,53.6682 68.2005,42.4752 82.0075,42.4752 C95.8145,42.4752 107.0075,53.6682 107.0075,67.4752 Z M94.5075,67.4752 C94.5075,74.3792 88.9115,79.9752 82.0075,79.9752 C75.1035,79.9752 69.5075,74.3792 69.5075,67.4752 C69.5075,60.5712 75.1035,54.9752 82.0075,54.9752 C88.9115,54.9752 94.5075,60.5712 94.5075,67.4752 Z" id="Combined-Shape" fill="#FFFFFF"></path>
                        <g id="Fill-57">
                            <use fill="black" fill-opacity="1" filter="url(#filter-14)" xlink:href="#path-13"></use>
                            <use fill="#FFFFFF" fill-rule="evenodd" xlink:href="#path-13"></use>
                        </g>
                        <path d="M77.0094,6.4036 L87.0094,6.4036 C90.3234,6.4036 93.0094,9.0896 93.0094,12.4036 L93.0094,27.5976 L71.0094,27.5976 L71.0094,12.4036 C71.0094,9.0896 73.6954,6.4036 77.0094,6.4036" id="Fill-45" fill="#727272"></path>
                        <polygon id="Fill-51" fill="#727272" points="164.006 130 0.014 130 0.014 123.95 164.006 123.95"></polygon>
                        <g id="Fill-56">
                            <use fill="black" fill-opacity="1" filter="url(#filter-16)" xlink:href="#path-15"></use>
                            <use fill="#FFFFFF" fill-rule="evenodd" xlink:href="#path-15"></use>
                        </g>
                        <g id="Fill-55">
                            <use fill="black" fill-opacity="1" filter="url(#filter-18)" xlink:href="#path-17"></use>
                            <use fill="#FFFFFF" fill-rule="evenodd" xlink:href="#path-17"></use>
                        </g>
                        <g id="Fill-54">
                            <use fill="black" fill-opacity="1" filter="url(#filter-20)" xlink:href="#path-19"></use>
                            <use fill="#FFFFFF" fill-rule="evenodd" xlink:href="#path-19"></use>
                        </g>
                        <g id="Fill-39">
                            <use fill="black" fill-opacity="1" filter="url(#filter-22)" xlink:href="#path-21"></use>
                            <use fill="#FFFFFF" fill-rule="evenodd" xlink:href="#path-21"></use>
                        </g>
                        <g id="Fill-37">
                            <use fill="black" fill-opacity="1" filter="url(#filter-24)" xlink:href="#path-23"></use>
                            <use fill="#FFFFFF" fill-rule="evenodd" xlink:href="#path-23"></use>
                        </g>
                        <g id="Fill-35">
                            <use fill="black" fill-opacity="1" filter="url(#filter-26)" xlink:href="#path-25"></use>
                            <use fill="#FFFFFF" fill-rule="evenodd" xlink:href="#path-25"></use>
                        </g>
                        <g id="Fill-33">
                            <use fill="black" fill-opacity="1" filter="url(#filter-28)" xlink:href="#path-27"></use>
                            <use fill="#FFFFFF" fill-rule="evenodd" xlink:href="#path-27"></use>
                        </g>
                    </g>
                    <path d="M79.5046,38.2618 L81.0296,64.6158 C81.1426,66.5628 79.6546,68.2338 77.7066,68.3468 L77.7066,68.3468 C75.7586,68.4588 74.0886,66.9718 73.9756,65.0238 L72.4506,38.6698 C72.3376,36.7218 73.8256,35.0518 75.7736,34.9388 L75.7736,34.9388 C77.7216,34.8258 79.3916,36.3138 79.5046,38.2618" id="Fill-15" fill="#FFFFFF"></path>
                    <path d="M198.3238,48.1591 L171.6038,49.7051 C169.7848,49.8101 168.2258,48.4211 168.1198,46.6031 C168.0148,44.7841 169.4038,43.2241 171.2228,43.1191 L197.9428,41.5731 C199.7618,41.4681 201.3208,42.8571 201.4258,44.6761 L201.4258,44.6761 C201.5318,46.4941 200.1428,48.0541 198.3238,48.1591" id="Fill-21" fill="#FFFFFF"></path>
                    <path d="M122,100 L129.5892,117.9282" id="Stroke-58" stroke="#FF4081" stroke-width="4" stroke-linecap="round" stroke-linejoin="round"></path>
                    <path d="M128.1657,95.4752 C128.1657,99.9812 124.5127,103.6332 120.0077,103.6332 C115.5017,103.6332 111.8497,99.9812 111.8497,95.4752 C111.8497,90.9692 115.5017,87.3172 120.0077,87.3172 C124.5127,87.3172 128.1657,90.9692 128.1657,95.4752" id="Fill-59" fill="#FF4081"></path>
                </g>
            </g>
        </g>
    </g>
</svg>