<?xml version="1.0" encoding="UTF-8" standalone="no"?>
<svg width="177px" height="25px" viewBox="0 0 177 25" version="1.1" xmlns="http://www.w3.org/2000/svg" xmlns:xlink="http://www.w3.org/1999/xlink">
    <!-- Generator: Sketch 3.7.2 (28276) - http://www.bohemiancoding.com/sketch -->
    <title>Group</title>
    <desc>Created with Sketch.</desc>
    <defs></defs>
    <g id="Page-1" stroke="none" stroke-width="1" fill="none" fill-rule="evenodd">
        <g id="Group" transform="translate(-1.000000, 0.000000)">
            <path d="M0.957,19.743 C2.409,22.482 5.016,24.264 8.679,24.264 C12.87,24.264 15.675,22.086 15.675,18.39 C15.675,15.024 13.794,13.374 10.197,11.658 L8.382,10.8 C5.643,9.513 4.422,8.721 4.422,6.576 C4.422,4.596 5.907,3.177 8.118,3.177 C10.164,3.177 11.55,3.969 12.573,5.652 L14.223,4.596 C12.837,2.352 10.89,1.296 8.085,1.296 C4.785,1.296 2.31,3.441 2.31,6.642 C2.31,9.777 4.257,11.229 7.491,12.747 L9.306,13.605 C12.012,14.859 13.53,15.981 13.53,18.456 C13.53,20.799 11.715,22.317 8.646,22.317 C6.006,22.317 3.96,21.03 2.772,18.786 L0.957,19.743 Z M18.843,24 L20.856,24 L20.856,17.994 C20.856,15.915 22.143,14.694 24.09,14.694 C25.806,14.694 26.73,15.618 26.73,17.532 L26.73,24 L28.743,24 L28.743,17.334 C28.743,14.397 26.961,12.879 24.585,12.879 C22.935,12.879 21.648,13.572 20.856,14.892 L20.856,0.57 L18.843,0.57 L18.843,24 Z M38.808,17.433 L35.541,17.433 C33.231,17.433 31.284,18.555 31.284,20.766 C31.284,23.142 33.132,24.264 35.409,24.264 C36.894,24.264 38.082,23.703 38.808,22.779 L38.808,24 L40.821,24 L40.821,17.334 C40.821,14.331 39.105,12.879 36.333,12.879 C34.452,12.879 33,13.572 31.911,15.024 L33.198,16.146 C33.957,15.123 34.881,14.595 36.267,14.595 C37.818,14.595 38.808,15.321 38.808,17.334 L38.808,17.433 Z M38.808,19.05 L38.808,20.238 C38.808,21.756 37.356,22.614 35.739,22.614 C34.221,22.614 33.297,21.987 33.297,20.766 C33.297,19.545 34.353,19.05 35.673,19.05 L38.808,19.05 Z M45.21,9.183 C45.936,9.183 46.596,8.589 46.596,7.797 C46.596,7.005 45.936,6.411 45.21,6.411 C44.484,6.411 43.824,7.005 43.824,7.797 C43.824,8.589 44.484,9.183 45.21,9.183 L45.21,9.183 Z M44.187,24 L46.233,24 L46.233,13.143 L44.187,13.143 L44.187,24 Z M49.764,24 L51.81,24 L51.81,0.57 L49.764,0.57 L49.764,24 Z M56.694,19.314 L65.802,19.314 C65.868,15.585 63.756,12.879 60.291,12.879 C57.123,12.879 54.582,15.321 54.582,18.588 C54.582,21.822 56.991,24.264 60.522,24.264 C62.667,24.264 64.152,23.538 65.142,22.35 L63.888,21.129 C63.162,21.954 62.172,22.548 60.489,22.548 C58.377,22.548 56.991,21.327 56.694,19.314 L56.694,19.314 Z M56.76,17.631 C57.09,15.783 58.41,14.595 60.291,14.595 C62.337,14.595 63.426,15.915 63.69,17.631 L56.76,17.631 Z M72.006,24.264 C74.58,24.264 76.131,23.043 76.131,20.997 C76.131,19.017 74.679,18.06 72.369,17.466 C70.686,17.037 69.993,16.773 69.993,15.816 C69.993,15.123 70.62,14.595 71.709,14.595 C72.831,14.595 73.524,15.057 74.052,15.75 L75.405,14.628 C74.547,13.506 73.392,12.879 71.676,12.879 C69.531,12.879 68.112,14.1 68.112,15.882 C68.112,17.796 69.399,18.621 71.544,19.215 C73.425,19.743 74.184,20.139 74.184,21.096 C74.184,21.987 73.392,22.548 72.006,22.548 C70.554,22.548 69.465,21.888 68.805,20.799 L67.353,21.822 C68.343,23.34 69.927,24.264 72.006,24.264 L72.006,24.264 Z M78.804,24 L80.817,24 L80.817,17.994 C80.817,15.915 82.104,14.694 84.051,14.694 C85.767,14.694 86.691,15.618 86.691,17.532 L86.691,24 L88.704,24 L88.704,17.334 C88.704,14.397 86.922,12.879 84.546,12.879 C82.896,12.879 81.609,13.572 80.817,14.892 L80.817,0.57 L78.804,0.57 L78.804,24 Z" id="Shailesh" fill="#212121"></path>
            <path d="M113.556,24.462 L113.754,24.462 L113.754,1.56 L111.741,1.56 L111.741,19.215 L96.627,1.098 L96.429,1.098 L96.429,24 L98.442,24 L98.442,6.345 L113.556,24.462 Z M124.512,17.433 L121.245,17.433 C118.935,17.433 116.988,18.555 116.988,20.766 C116.988,23.142 118.836,24.264 121.113,24.264 C122.598,24.264 123.786,23.703 124.512,22.779 L124.512,24 L126.525,24 L126.525,17.334 C126.525,14.331 124.809,12.879 122.037,12.879 C120.156,12.879 118.704,13.572 117.615,15.024 L118.902,16.146 C119.661,15.123 120.585,14.595 121.971,14.595 C123.522,14.595 124.512,15.321 124.512,17.334 L124.512,17.433 Z M124.512,19.05 L124.512,20.238 C124.512,21.756 123.06,22.614 121.443,22.614 C119.925,22.614 119.001,21.987 119.001,20.766 C119.001,19.545 120.057,19.05 121.377,19.05 L124.512,19.05 Z M131.838,21.096 C132.432,20.436 133.422,19.281 133.422,19.314 L137.019,24 L139.527,24 L134.742,17.796 L138.834,13.143 L136.458,13.143 L131.838,18.489 L131.838,0.57 L129.825,0.57 L129.825,24 L131.838,24 L131.838,21.096 Z M141.573,24 L143.586,24 L143.586,18.258 C143.586,16.047 144.807,14.727 146.424,14.727 C147.018,14.727 147.414,14.826 147.777,15.024 L148.47,13.308 C147.975,13.011 147.513,12.879 146.754,12.879 C145.5,12.879 144.279,13.539 143.586,14.958 L143.586,13.143 L141.573,13.143 L141.573,24 Z M156.918,17.433 L153.651,17.433 C151.341,17.433 149.394,18.555 149.394,20.766 C149.394,23.142 151.242,24.264 153.519,24.264 C155.004,24.264 156.192,23.703 156.918,22.779 L156.918,24 L158.931,24 L158.931,17.334 C158.931,14.331 157.215,12.879 154.443,12.879 C152.562,12.879 151.11,13.572 150.021,15.024 L151.308,16.146 C152.067,15.123 152.991,14.595 154.377,14.595 C155.928,14.595 156.918,15.321 156.918,17.334 L156.918,17.433 Z M156.918,19.05 L156.918,20.238 C156.918,21.756 155.466,22.614 153.849,22.614 C152.331,22.614 151.407,21.987 151.407,20.766 C151.407,19.545 152.463,19.05 153.783,19.05 L156.918,19.05 Z M162.231,24 L164.244,24 L164.244,17.994 C164.244,15.915 165.531,14.694 167.478,14.694 C169.194,14.694 170.118,15.618 170.118,17.532 L170.118,24 L172.131,24 L172.131,17.334 C172.131,14.397 170.349,12.879 167.973,12.879 C166.323,12.879 164.937,13.572 164.244,14.892 L164.244,13.143 L162.231,13.143 L162.231,24 Z M176.421,9.183 C177.147,9.183 177.807,8.589 177.807,7.797 C177.807,7.005 177.147,6.411 176.421,6.411 C175.695,6.411 175.035,7.005 175.035,7.797 C175.035,8.589 175.695,9.183 176.421,9.183 L176.421,9.183 Z M175.398,24 L177.444,24 L177.444,13.143 L175.398,13.143 L175.398,24 Z" id="Nakrani" fill="#727272"></path>
        </g>
    </g>
</svg>